<svg version="1.1" xmlns="http://www.w3.org/2000/svg" viewBox="0 0 812.2182384674561 443.55151682919626" width="812.2182384674561" height="443.55151682919626">
  <!-- svg-source:excalidraw -->
  
  <defs>
    <style class="style-fonts">
      @font-face {
        font-family: "Virgil";
        src: url("https://excalidraw.com/Virgil.woff2");
      }
      @font-face {
        font-family: "Cascadia";
        src: url("https://excalidraw.com/Cascadia.woff2");
      }
    </style>
  </defs>
  <rect x="0" y="0" width="812.2182384674561" height="443.55151682919626" fill="#ffffff"></rect><g stroke-linecap="round" transform="translate(22.66440110427243 54.880302824920136) rotate(0 69.66468582732654 28.665851584450166)"><path d="M70.71 1.12 L139.23 27.58 L69.04 56.36 L1.95 28.23" stroke="none" stroke-width="0" fill="#c6302b" fill-rule="evenodd"></path><path d="M68.55 0.89 C89.17 8.27, 108.7 14.86, 138.93 29.09 M70.02 -0.39 C86.98 6.85, 104.65 15.56, 139.79 29.85 M140.39 27.74 C116.1 40.01, 93.71 48.16, 71.67 59.14 M139.45 28.1 C118.41 36.88, 100.1 45.18, 69.33 56.51 M68.18 55.58 C53.98 50.8, 42.27 47.57, -1.16 27.43 M69.82 56.89 C46.25 47.65, 20.89 37.26, 0.29 29.74 M1.34 28.37 C25.02 16.66, 53.62 8.67, 68.96 -1.72 M0.81 29.54 C13.93 22.94, 29.02 16.99, 69.37 -0.89" stroke="#000000" stroke-width="1" fill="none"></path></g><g stroke-linecap="round"><g transform="translate(21.797759079626076 83.2294967465188) rotate(0 69.05767135852949 18.641868724177556)" fill-rule="evenodd"><path d="M1.32 0.24 L-2.03 4.9 L1.34 11.18 L57.55 33.3 L68.91 36.47 L95.73 29.59 L129.34 11.11 L136.39 7.68 L139.98 3.81 L136.55 -1.27 L71.93 28.89 L0.01 -0.35" stroke="none" stroke-width="0" fill="#912626" fill-rule="evenodd"></path><path d="M-0.87 0.54 C-1.1 1.35, -0.85 3.71, -0.24 5.1 C0.38 6.48, -2.12 6.1, 2.81 8.85 C7.75 11.6, 20.11 17.33, 29.37 21.6 C38.63 25.87, 51.61 31.66, 58.39 34.47 C65.17 37.28, 66.34 38.51, 70.05 38.43 C73.76 38.35, 74.01 36.82, 80.66 33.99 C87.3 31.16, 100.65 25.32, 109.91 21.47 C119.16 17.62, 131.21 13.5, 136.19 10.88 C141.17 8.26, 139.51 7.37, 139.79 5.75 C140.08 4.12, 140.03 1.28, 137.89 1.13 C135.75 0.98, 137.12 0.62, 126.97 4.84 C116.82 9.07, 87.55 23.09, 76.98 26.48 C66.41 29.87, 76.21 29.42, 63.55 25.18 C50.88 20.95, 11.62 5.22, 1 1.09 M0.87 -0.23 C0.36 0.17, -1.49 1.41, -1.31 3.08 C-1.12 4.75, -3.13 6.53, 2 9.8 C7.14 13.08, 19.77 18.57, 29.49 22.73 C39.21 26.89, 53.35 32.33, 60.3 34.78 C67.25 37.22, 67.73 37.23, 71.19 37.4 C74.65 37.58, 74.26 38.03, 81.05 35.84 C87.85 33.64, 103.04 28.59, 111.99 24.25 C120.94 19.91, 130.53 12.91, 134.77 9.79 C139.01 6.67, 136.84 7.33, 137.43 5.51 C138.02 3.69, 140.23 -0.86, 138.31 -1.11 C136.38 -1.36, 136.08 -0.49, 125.89 4.02 C115.71 8.54, 87.66 22.51, 77.19 25.99 C66.72 29.47, 76.23 29.05, 63.07 24.91 C49.9 20.76, 8.57 4.95, -1.8 1.1" stroke="#000000" stroke-width="1" fill="none"></path></g></g><mask></mask><g stroke-linecap="round"><g transform="translate(21.581098573464487 61.78010663652617) rotate(0 69.57152815315777 18.26499485869482)" fill-rule="evenodd"><path d="M0.24 -1.81 L-2.09 5.21 L4.55 8.16 L57.58 32.98 L68.63 38.98 L95.53 27.4 L129.41 11.16 L137.19 9.41 L140.79 1.01 L136.14 1.29 L71.38 28.46 L-0.35 -0.88" stroke="none" stroke-width="0" fill="#912626" fill-rule="evenodd"></path><path d="M0.54 -0.24 C0.53 0.71, -0.08 3.23, 0.2 4.81 C0.48 6.4, -2.7 6.59, 2.21 9.29 C7.12 11.99, 20.24 16.88, 29.66 21.02 C39.09 25.15, 51.93 31.3, 58.75 34.12 C65.57 36.94, 67.02 37.98, 70.59 37.93 C74.17 37.88, 73.67 36.32, 80.23 33.83 C86.79 31.33, 100.61 26.71, 109.95 22.96 C119.29 19.22, 131.38 14.26, 136.26 11.35 C141.13 8.44, 138.81 7.25, 139.19 5.51 C139.57 3.78, 140.81 0.93, 138.54 0.94 C136.27 0.95, 135.72 1.33, 125.57 5.55 C115.43 9.78, 88.1 22.81, 77.66 26.28 C67.23 29.75, 75.71 30.75, 62.95 26.35 C50.19 21.95, 11.52 4.13, 1.09 -0.13 M-0.64 -1.4 C-0.81 -0.18, -0.93 4.33, -0.64 6.31 C-0.36 8.29, -4.01 7.9, 1.09 10.49 C6.18 13.08, 20.59 17.89, 29.94 21.84 C39.29 25.8, 50.18 31.77, 57.2 34.24 C64.21 36.7, 68.15 36.42, 72.02 36.65 C75.89 36.87, 73.73 37.88, 80.4 35.59 C87.08 33.29, 102.97 27.06, 112.05 22.88 C121.13 18.69, 130.18 13.45, 134.87 10.5 C139.56 7.54, 139.44 7.14, 140.18 5.15 C140.92 3.17, 141.42 -1.39, 139.3 -1.4 C137.17 -1.41, 137.6 0.59, 127.43 5.1 C117.25 9.62, 89.1 22.09, 78.23 25.68 C67.35 29.28, 75.47 31.09, 62.16 26.69 C48.84 22.28, 8.42 3.9, -1.67 -0.75" stroke="#000000" stroke-width="1" fill="none"></path></g></g><mask></mask><g stroke-linecap="round" transform="translate(21.797759079626303 32.78093119644285) rotate(0 69.66468582732654 28.665851584450166)"><path d="M68.58 -0.96 L138.35 30.95 L69.23 55.47 L0.78 30.35" stroke="none" stroke-width="0" fill="#c6302b" fill-rule="evenodd"></path><path d="M70.33 -0.14 C84.76 6.33, 101.77 12.46, 139.06 28.14 M69.12 -0.85 C91.26 9.75, 112.68 18.41, 139.48 29.69 M140.39 29.72 C114.38 40.65, 91.98 48.78, 70.62 58.66 M138.55 29.83 C116.76 36.52, 94.98 45.07, 70.29 57.52 M69.1 58.16 C57.26 49.65, 39.43 45.89, 0.44 29.01 M70.22 57.22 C50.1 50.17, 31.35 42.64, 0.02 28.95 M-1.47 29.94 C27.24 17.78, 49.75 6.19, 69.7 0.24 M-0.16 29.9 C26.25 17.42, 52.35 7.35, 70.56 -0.05" stroke="#000000" stroke-width="1" fill="none"></path></g><g stroke-linecap="round" transform="translate(20.91225794209595 10) rotate(0 69.66468582732654 28.665851584450166)"><path d="M69.04 -0.98 L141.28 28.23 L68.14 58.11 L1.35 29.47" stroke="none" stroke-width="0" fill="#c6302b" fill-rule="evenodd"></path><path d="M69.86 -1.14 C93.44 9.97, 116.85 19.6, 138.47 29.05 M69.15 0.4 C88.35 9.03, 106.34 15.9, 140.02 29.53 M140.05 28.72 C124.55 37.89, 106.24 43.42, 71.32 57.57 M140.15 28.32 C123.86 33.57, 109.02 40.63, 70.19 56.42 M70.83 58.97 C54.22 49.43, 41.52 45.43, 0.01 28.65 M69.88 57.06 C52.16 50.98, 34.71 43.01, -0.05 29.67 M0.94 30.47 C17.94 20.01, 35.79 13.64, 70.24 1.63 M0.9 28.71 C24.18 17.97, 49.92 9.15, 69.95 -0.71" stroke="#000000" stroke-width="1" fill="none"></path></g><g stroke-linecap="round"><g transform="translate(20.695597435934133 38.99917544008332) rotate(0 69.5123760870178 19.028505716679746)" fill-rule="evenodd"><path d="M-1.56 1.65 L-1.59 5.44 L1.25 7.6 L59.49 35 L68.74 36.64 L93.46 28.32 L131.99 14.5 L136.93 7.01 L140.14 2.61 L137.73 -0.05 L70.06 30 L0.44 -0.23" stroke="none" stroke-width="0" fill="#912626" fill-rule="evenodd"></path><path d="M-0.09 -0.69 C-0.09 0.11, -0.65 3.28, -0.24 4.96 C0.17 6.63, -2.51 6.6, 2.38 9.37 C7.26 12.14, 19.75 17.51, 29.09 21.57 C38.44 25.63, 51.71 31.1, 58.45 33.74 C65.18 36.38, 65.65 37.1, 69.51 37.38 C73.37 37.67, 74.53 37.85, 81.6 35.43 C88.68 33.02, 102.93 26.94, 111.98 22.9 C121.02 18.85, 131.31 14.22, 135.88 11.16 C140.46 8.11, 139.12 6.28, 139.42 4.58 C139.72 2.87, 139.78 0.79, 137.67 0.93 C135.56 1.08, 136.7 1.1, 126.76 5.43 C116.82 9.77, 88.66 23.56, 78.03 26.94 C67.41 30.32, 75.86 30.19, 62.99 25.72 C50.12 21.26, 11.47 4.62, 0.79 0.14 M-1.59 1.57 C-1.75 2.55, -1.8 5.02, -1.31 6.52 C-0.83 8.03, -3.73 7.91, 1.33 10.6 C6.4 13.3, 19.23 18.85, 29.07 22.69 C38.91 26.53, 53.51 30.87, 60.39 33.66 C67.28 36.46, 66.68 39.35, 70.37 39.47 C74.05 39.59, 75.65 37.16, 82.5 34.38 C89.35 31.59, 102.85 26.8, 111.48 22.77 C120.12 18.75, 129.47 13.39, 134.3 10.21 C139.14 7.04, 139.91 5.67, 140.52 3.73 C141.13 1.79, 140.45 -1.61, 137.96 -1.41 C135.47 -1.21, 135.44 0.24, 125.58 4.92 C115.71 9.61, 89.35 23.22, 78.79 26.68 C68.23 30.15, 75.09 30.23, 62.22 25.72 C49.34 21.22, 12.01 4.03, 1.54 -0.34" stroke="#000000" stroke-width="1" fill="none"></path></g></g><mask></mask><g stroke-linecap="round" transform="translate(45.845346726535126 31.751909887945715) rotate(0 15.038788074742342 6.627262541411881)"><path d="M21.31 0.16 C24.11 0.47, 26.16 1.34, 27.64 2.77 C29.13 4.2, 30.86 7.36, 30.22 8.72 C29.58 10.09, 26.58 10.25, 23.8 10.98 C21.02 11.71, 16.67 12.87, 13.55 13.1 C10.44 13.33, 7.26 13.33, 5.12 12.38 C2.98 11.43, 1.19 8.8, 0.69 7.41 C0.19 6.01, 0.55 5.31, 2.11 4.02 C3.67 2.74, 6.59 0.1, 10.07 -0.3 C13.54 -0.7, 20.17 1.16, 22.97 1.61 C25.77 2.06, 26.99 2.45, 26.87 2.4 M10.01 0.78 C12.86 0.53, 19.76 0.65, 22.65 1.02 C25.54 1.4, 26.43 2, 27.36 3.03 C28.29 4.06, 28.91 5.67, 28.23 7.22 C27.54 8.76, 25.88 11.49, 23.26 12.33 C20.65 13.16, 15.87 12.28, 12.52 12.24 C9.17 12.21, 5.22 13.09, 3.18 12.12 C1.13 11.16, 0.44 7.98, 0.26 6.46 C0.07 4.93, 0.41 4.12, 2.06 2.97 C3.71 1.81, 8.62 -0.18, 10.14 -0.47 C11.66 -0.76, 10.95 0.77, 11.2 1.21" stroke="none" stroke-width="0" fill="#ffff"></path><path d="M14.96 0.03 C18.04 -0.13, 22.24 0.12, 24.58 0.91 C26.93 1.7, 28.41 3.18, 29.03 4.78 C29.64 6.39, 29.67 9.12, 28.28 10.53 C26.9 11.95, 23.79 12.76, 20.69 13.25 C17.6 13.74, 12.77 14.17, 9.71 13.49 C6.66 12.81, 3.95 10.45, 2.37 9.18 C0.8 7.9, -0.35 7.16, 0.25 5.85 C0.86 4.54, 3.11 2.13, 6 1.31 C8.9 0.5, 15.64 1.07, 17.65 0.95 C19.66 0.83, 18.11 0.61, 18.05 0.59 M9.72 -0.36 C12.45 -1.04, 15.03 -1.63, 17.71 -1.04 C20.39 -0.45, 23.68 2.05, 25.78 3.18 C27.88 4.31, 30.53 4.61, 30.32 5.74 C30.11 6.87, 26.92 8.62, 24.52 9.97 C22.11 11.32, 18.68 13.63, 15.9 13.84 C13.12 14.06, 10.58 12.02, 7.83 11.24 C5.08 10.46, 0.42 10.4, -0.61 9.18 C-1.64 7.96, 0.18 5.46, 1.64 3.93 C3.11 2.4, 6.86 0.47, 8.21 0 C9.57 -0.47, 9.65 0.97, 9.77 1.11" stroke="#000000" stroke-width="1" fill="none"></path></g><g stroke-linecap="round"><g transform="translate(73.65435992915172 51.8480824140982) rotate(0 13.04452160336939 0.0522353919463967)" fill-rule="evenodd"><path d="M-0.77 -1.86 L20.09 7.8 L26.47 -7.67 L-1.21 -1.69" stroke="none" stroke-width="0" fill="#ffff" fill-rule="evenodd"></path><path d="M0.09 -0.87 C5.35 1.07, 11.32 3.04, 17.82 4.69 M0.85 0.34 C4.33 1.99, 8.88 2.06, 19.27 6.98 M20.57 6.3 C22.01 3.21, 23.99 -3.09, 24.7 -6.87 M18.73 5.78 C22.16 1.94, 23.88 -3.48, 25.41 -6.1 M24.43 -4.79 C17.61 -3.94, 7.93 -2.86, 1.55 0.44 M26.75 -5.02 C18.51 -4.09, 11.66 -2.69, -0.66 -0.73 M0 0 C0 0, 0 0, 0 0 M0 0 C0 0, 0 0, 0 0" stroke="#000000" stroke-width="1" fill="none"></path></g></g><mask></mask><g stroke-linecap="round"><g transform="translate(83.18742220025979 18.752279518253147) rotate(0 7.775244304448677 7.496550700411774)" fill-rule="evenodd"><path d="M-1.72 1.05 L2.57 5.58 L-4.98 10.47 L2.24 8.56 L7.71 17.16 L8.27 11.2 L21.74 8.93 L13.21 6.57 L15.37 0.47 L7.51 2.73 L0.93 -0.17" stroke="none" stroke-width="0" fill="#ffff" fill-rule="evenodd"></path><path d="M-0.25 -0.08 C0.32 1.3, 0.93 2.13, 1.89 4.8 M0.1 0.04 C1.04 1.93, 1.47 3.57, 2.55 5.39 M2.31 5.54 C0.96 6.63, -2.32 6.95, -5.26 10.09 M2 5.41 C0.82 5.82, -1.24 6.8, -4.81 9.59 M-4.2 9.61 C-1.36 9.65, 1.52 10.77, 4.11 10.13 M-4.3 9.43 C-2.31 9.87, -0.09 9.52, 3.61 10.44 M3.19 10.12 C5.77 12.96, 7.87 14.34, 8.6 16.49 M4.06 10.44 C5.17 11.53, 6.31 13.13, 9.08 15.69 M8.87 15.2 C8.55 13.89, 8.66 13.02, 10.06 8.83 M8.77 15.69 C8.87 14.33, 9.07 12.58, 9.9 9.45 M8.97 10.19 C13.07 8.66, 15.2 8.61, 19.82 8.12 M10.27 9.33 C13.14 8.61, 15.56 7.99, 20.69 7.56 M20.81 7.9 C18.04 7.32, 14.33 6.38, 12.38 5 M20.37 8.04 C16.7 6.71, 14.28 5.67, 11.16 4.75 M11.37 4.37 C11.75 3.56, 13.12 2.6, 13.8 -1.06 M11.53 4.82 C12.13 2.95, 13.39 1.24, 14.55 -1.5 M14.29 -1.28 C12.87 -0.46, 10.19 1.36, 7.39 2.54 M14.24 -1.41 C11.42 0.36, 8.61 0.88, 6.45 1.92 M6.1 2.53 C4.07 2.16, 2.28 0.42, -0.14 -0.37 M6.68 2.38 C5.52 1.88, 4.18 1.38, -0.21 -0.32 M0 0 C0 0, 0 0, 0 0 M0 0 C0 0, 0 0, 0 0" stroke="#000000" stroke-width="1" fill="none"></path></g></g><mask></mask><g stroke-linecap="round"><g transform="translate(122.66277035003623 31.20878807611996) rotate(0 0.14998939911794196 6.464448821357166)" fill-rule="evenodd"><path d="M-0.13 0.4 L16.93 6.85 L1.12 14.23 L-15.38 7.9 L1.88 0.08 L1.33 1.9" stroke="none" stroke-width="0" fill="#912626" fill-rule="evenodd"></path><path d="M-0.24 -0.75 C4.6 1.21, 7.8 2.17, 14.77 7.2 M0.13 0.6 C6.14 1.64, 11.26 4.9, 16.56 6.38 M16.81 7.7 C10.04 7.34, 1.65 10.05, 0.84 11.76 M16.51 6.67 C11.43 7.06, 7.54 8.96, -0.27 13.74 M-0.28 13.01 C-4.67 10.76, -6.84 10.3, -16.44 6.04 M-0.63 12.96 C-5.27 10.71, -11.53 8.22, -15.85 7.12 M-16.51 6.71 C-10.74 5.99, -8.42 3.17, 1.57 -0.51 M-15.76 6.46 C-12.97 4.48, -8.92 4.22, -0.34 -0.81 M0 0 C0 0, 0 0, 0 0 M0 0 C0 0, 0 0, 0 0 M0 0 C0 0, 0 0, 0 0 M0 0 C0 0, 0 0, 0 0" stroke="#000000" stroke-width="1" fill="none"></path></g></g><mask></mask><g stroke-linecap="round"><g transform="translate(120.99159303317697 30.816433104567807) rotate(0 0.1474011103012458 6.814607869098893)"><path d="M-0.56 0.03 C-0.46 2.99, -1 6.82, 0.86 13.6 M0.45 0.35 C-0.24 4.97, 0.64 10.23, 0.24 13.54" stroke="#000000" stroke-width="1" fill="none"></path></g></g><mask></mask><g stroke-linecap="round" transform="translate(209.6597854473839 34.92767391887145) rotate(0 134.1780091251403 33.30485119851119)"><path d="M-1.2 -1.57 L269.39 -0.32 L268.66 68.18 L0.67 67.33" stroke="none" stroke-width="0" fill="#eeeeee"></path><path d="M0.58 1.15 C92.93 0.33, 188.41 1.91, 268.3 -1.08 M-0.58 0.02 C63.86 -0.83, 128.82 -0.17, 267.78 -0.77 M269.8 1.68 C267.12 25.18, 267.02 49.22, 267.54 65.67 M268.45 0.92 C268.56 15.91, 268.65 31.22, 267.39 66.57 M268.12 65.52 C183.57 65.34, 98.46 64.82, -1.3 66.55 M268.97 67.15 C179.93 67.95, 90.52 66.71, 0.35 66.69 M-0.71 66.35 C-0.66 53, 1.67 37.88, 1.73 -1.11 M0.34 65.78 C-1.1 52.24, 0.13 40.04, -0.23 -0.66" stroke="#000000" stroke-width="1" fill="none"></path></g><g stroke-linecap="round" transform="translate(29.582280369305295 381.78999374156643) rotate(0 59.58608169516236 21.26076154381377)"><path d="M11.82 1.75 L111.28 -0.76 L120.47 5.41 L117.13 37.4 L116.59 39.54 L107.56 42.01 L7.47 40.89 L2.02 35.21 L0.9 11.44 L4.07 3.01 L10.34 1.13" stroke="none" stroke-width="0" fill="#ced4da"></path><path d="M10.63 0 M10.63 0 C32.57 -1.53, 56.8 -1.31, 108.54 0 M10.63 0 C48.88 -0.39, 85.3 0.5, 108.54 0 M108.54 0 C115.71 1.16, 119.88 3.41, 119.17 10.63 M108.54 0 C115.69 -1.08, 118.08 5.39, 119.17 10.63 M119.17 10.63 C120.71 17.15, 118.37 23.86, 119.17 31.89 M119.17 10.63 C118.57 16.83, 119.83 22.75, 119.17 31.89 M119.17 31.89 C119.67 39.93, 114.58 43.82, 108.54 42.52 M119.17 31.89 C118.59 38.2, 114.76 44.65, 108.54 42.52 M108.54 42.52 C79.26 43.99, 49.95 41.87, 10.63 42.52 M108.54 42.52 C72.07 42.79, 36.32 42.47, 10.63 42.52 M10.63 42.52 C1.9 42.4, -1.33 38.54, 0 31.89 M10.63 42.52 C4.41 43.1, -0.03 39.52, 0 31.89 M0 31.89 C-0.05 26.65, -0.41 17.14, 0 10.63 M0 31.89 C-0.7 23.43, -0.42 15.54, 0 10.63 M0 10.63 C-0.58 5.25, 4.02 0.46, 10.63 0 M0 10.63 C-0.02 4.47, 3.1 0.38, 10.63 0" stroke="#000000" stroke-width="1" fill="none"></path></g><g stroke-linecap="round" transform="translate(62.5924101346975 333.67353340556923) rotate(0 40.283548188278814 38.884813876185774)"><path d="M31.33 1.61 C37.69 -0.3, 46.74 -0.65, 53.56 1.81 C60.38 4.26, 67.71 10.56, 72.24 16.35 C76.77 22.14, 80.3 29.7, 80.74 36.54 C81.18 43.37, 78.49 51.33, 74.88 57.36 C71.26 63.39, 65.19 69.31, 59.03 72.74 C52.87 76.17, 45.04 78.34, 37.9 77.93 C30.77 77.53, 22.08 74.63, 16.22 70.32 C10.36 66.01, 5.22 58.68, 2.76 52.07 C0.3 45.46, -0.13 37.46, 1.49 30.65 C3.11 23.84, 7.02 16.13, 12.47 11.21 C17.93 6.28, 29.83 2.75, 34.22 1.1 C38.6 -0.55, 38.68 0.87, 38.78 1.31 M35.89 0.74 C42.81 -0.66, 50.94 0.71, 57.43 3.53 C63.91 6.34, 70.92 11.73, 74.81 17.63 C78.71 23.52, 81.02 31.72, 80.81 38.87 C80.6 46.03, 77.44 54.62, 73.56 60.55 C69.68 66.48, 63.83 71.81, 57.53 74.44 C51.23 77.07, 42.94 77.17, 35.74 76.35 C28.54 75.52, 19.93 73.85, 14.33 69.49 C8.72 65.13, 4.02 57.29, 2.1 50.2 C0.18 43.11, 1.04 33.67, 2.82 26.96 C4.6 20.25, 7.22 14.14, 12.77 9.93 C18.32 5.72, 32.3 2.94, 36.09 1.69 C39.89 0.43, 35.79 2.17, 35.52 2.4" stroke="none" stroke-width="0" fill="#ced4da"></path><path d="M34.64 0.23 C41.42 -1.36, 49.86 0.42, 56.58 3.28 C63.3 6.15, 70.84 11.59, 74.95 17.42 C79.06 23.26, 81.3 31.12, 81.24 38.27 C81.18 45.43, 78.52 54.33, 74.59 60.36 C70.66 66.39, 64.38 71.53, 57.67 74.46 C50.97 77.39, 41.76 79.11, 34.35 77.93 C26.94 76.75, 18.67 72.17, 13.22 67.39 C7.76 62.6, 3.68 55.8, 1.63 49.22 C-0.42 42.63, -1.06 34.37, 0.89 27.89 C2.83 21.4, 6.62 14.88, 13.3 10.3 C19.98 5.72, 35.49 1.94, 40.98 0.42 C46.47 -1.11, 46.45 0.41, 46.23 1.14 M40.99 0.05 C47.64 -0.57, 55.79 1.87, 62.04 5.89 C68.28 9.91, 75.39 17.37, 78.46 24.15 C81.53 30.92, 81.62 39.85, 80.43 46.54 C79.24 53.23, 76.34 59.51, 71.3 64.3 C66.26 69.09, 57.44 73.1, 50.21 75.28 C42.98 77.45, 34.59 79.48, 27.93 77.36 C21.27 75.24, 14.83 68.05, 10.25 62.55 C5.68 57.05, 1.55 51.03, 0.5 44.34 C-0.54 37.65, 0.75 28.96, 3.99 22.4 C7.22 15.84, 13.56 8.77, 19.91 4.97 C26.26 1.18, 38.63 0.42, 42.07 -0.37 C45.52 -1.16, 40.52 -0.47, 40.57 0.22" stroke="#000000" stroke-width="1" fill="none"></path></g><g stroke-linecap="round" transform="translate(10 368.9216380703136) rotate(0 27.974686241860297 27.135445654604496)"><path d="M25.39 0.12 C30.94 -0.87, 37.66 0.94, 42.48 4.23 C47.29 7.53, 52.53 14.36, 54.26 19.88 C56 25.41, 55.01 32.25, 52.88 37.36 C50.75 42.48, 46.75 47.91, 41.47 50.58 C36.19 53.25, 27 54.5, 21.18 53.38 C15.36 52.25, 9.99 48.56, 6.55 43.83 C3.12 39.1, 0.44 30.96, 0.57 25 C0.71 19.03, 2.68 12.14, 7.38 8.04 C12.08 3.94, 24.4 1.56, 28.78 0.4 C33.16 -0.77, 33.6 0.64, 33.66 1.06 M22.09 0.48 C27.21 -1.04, 33.7 1.06, 39.08 3.75 C44.46 6.43, 51.88 11.6, 54.39 16.58 C56.89 21.55, 55.93 28.23, 54.1 33.6 C52.27 38.98, 48.28 45.18, 43.41 48.82 C38.54 52.45, 30.71 55.81, 24.87 55.42 C19.03 55.04, 12.52 50.77, 8.39 46.51 C4.25 42.26, 0.65 35.7, 0.07 29.89 C-0.51 24.07, 1.43 16.57, 4.9 11.64 C8.37 6.7, 18.08 1.9, 20.88 0.29 C23.68 -1.32, 21.53 1.22, 21.69 1.97" stroke="none" stroke-width="0" fill="#ced4da"></path><path d="M18.39 1.1 C23.51 -0.97, 31.86 0.22, 37.43 2.43 C42.99 4.64, 48.89 9.37, 51.79 14.37 C54.69 19.37, 55.76 26.71, 54.83 32.44 C53.91 38.17, 50.72 45.11, 46.25 48.72 C41.78 52.34, 33.97 54.38, 28.01 54.12 C22.04 53.87, 15.19 50.92, 10.44 47.19 C5.7 43.45, 0.75 37.47, -0.45 31.72 C-1.65 25.97, -0.58 17.99, 3.25 12.69 C7.08 7.38, 18.48 1.76, 22.51 -0.12 C26.54 -2, 27.28 0.75, 27.44 1.41 M28.29 0.87 C34.21 0.33, 42.13 2.89, 46.69 6.41 C51.24 9.92, 54.83 16.01, 55.61 21.96 C56.39 27.92, 54.29 36.93, 51.36 42.12 C48.42 47.31, 43.31 51.19, 38 53.12 C32.69 55.04, 25.35 55.87, 19.51 53.66 C13.68 51.45, 6.34 45.13, 2.98 39.84 C-0.38 34.56, -2.09 27.41, -0.66 21.95 C0.77 16.5, 6.97 10.76, 11.58 7.13 C16.2 3.51, 24.14 1.3, 27.03 0.2 C29.92 -0.9, 28.67 0.01, 28.92 0.55" stroke="#000000" stroke-width="1" fill="none"></path></g><g stroke-linecap="round" transform="translate(40.21266114120465 347.1013828016624) rotate(0 19.2035461555663 17.262533310169488)"><path d="M15.87 -0.4 C19.73 -1.44, 25.1 0.1, 28.8 1.92 C32.5 3.75, 36.71 6.88, 38.06 10.56 C39.42 14.23, 38.61 20.43, 36.93 23.95 C35.26 27.47, 31.6 29.79, 28.03 31.65 C24.47 33.51, 19.44 35.57, 15.55 35.1 C11.67 34.63, 7.44 31.83, 4.71 28.83 C1.98 25.83, -0.68 20.94, -0.82 17.11 C-0.96 13.29, 0.59 8.69, 3.89 5.88 C7.19 3.07, 16.1 1.13, 18.99 0.26 C21.88 -0.61, 21.24 0.52, 21.22 0.68 M24.43 -0.17 C28.44 0.61, 33.99 5.7, 36.42 8.82 C38.84 11.93, 39.78 15.08, 38.97 18.52 C38.16 21.96, 34.77 26.87, 31.53 29.46 C28.3 32.05, 23.31 33.74, 19.54 34.06 C15.77 34.39, 12.04 33.56, 8.93 31.41 C5.81 29.25, 1.88 24.85, 0.84 21.14 C-0.2 17.42, 0.85 12.44, 2.7 9.14 C4.55 5.83, 8.35 2.6, 11.94 1.3 C15.53 0, 22.01 1.35, 24.24 1.34 C26.46 1.33, 25.06 1.23, 25.28 1.24" stroke="none" stroke-width="0" fill="#ced4da"></path><path d="M22.79 0.14 C26.78 0.61, 32.42 3.35, 35.13 6.21 C37.85 9.06, 39.28 13.43, 39.07 17.27 C38.86 21.12, 36.63 26.39, 33.87 29.27 C31.11 32.15, 26.68 34.02, 22.5 34.55 C18.33 35.07, 12.52 34.57, 8.81 32.43 C5.11 30.28, 1.5 25.39, 0.27 21.68 C-0.96 17.97, -0.1 13.44, 1.44 10.16 C2.98 6.88, 5.77 3.44, 9.5 2 C13.23 0.55, 21 1.54, 23.8 1.5 C26.6 1.45, 26.18 1.59, 26.31 1.73 M15.11 1.12 C18.58 0, 23.76 0.3, 27.23 1.66 C30.69 3.02, 33.95 5.8, 35.91 9.26 C37.86 12.73, 39.84 18.52, 38.95 22.44 C38.07 26.35, 33.99 30.86, 30.61 32.76 C27.22 34.65, 22.9 34.56, 18.63 33.82 C14.36 33.08, 8.1 30.61, 4.97 28.33 C1.84 26.05, -0.06 23.85, -0.15 20.15 C-0.24 16.46, 1.99 9.3, 4.42 6.15 C6.85 3.01, 12.79 2.09, 14.44 1.28 C16.1 0.47, 14.18 1.26, 14.34 1.3" stroke="#000000" stroke-width="1" fill="none"></path></g><g stroke-linecap="round" transform="translate(116.30380771907221 379.55201884222) rotate(0 23.77848330558129 22.379748993488192)"><path d="M18.67 0.31 C23.14 -0.68, 30.53 1.31, 34.94 3.62 C39.34 5.92, 43.12 9.91, 45.12 14.14 C47.12 18.38, 48.57 24.5, 46.94 29.04 C45.31 33.58, 39.71 38.76, 35.36 41.38 C31.01 43.99, 25.68 45.62, 20.84 44.75 C16 43.89, 9.81 39.98, 6.33 36.19 C2.84 32.41, 0.14 26.63, -0.06 22.04 C-0.26 17.44, 1.48 12.28, 5.12 8.62 C8.77 4.96, 18.66 1.42, 21.81 0.08 C24.97 -1.25, 24.15 0.15, 24.06 0.63 M21.9 1.13 C26.69 0.84, 35.23 2.76, 39.28 5.38 C43.32 8, 45.32 12.39, 46.17 16.84 C47.03 21.29, 46.71 27.52, 44.41 32.1 C42.11 36.69, 36.95 42.37, 32.37 44.36 C27.78 46.35, 21.69 45.62, 16.91 44.05 C12.13 42.48, 6.5 39.02, 3.67 34.95 C0.84 30.88, -0.75 24.58, -0.08 19.63 C0.6 14.68, 3.78 8.42, 7.7 5.25 C11.61 2.08, 20.86 1.18, 23.41 0.59 C25.96 0, 23.25 1.37, 23 1.72" stroke="none" stroke-width="0" fill="#ced4da"></path><path d="M23.95 0.75 C28.74 0.74, 35.13 3.08, 38.91 6.18 C42.68 9.27, 45.66 14.6, 46.6 19.34 C47.54 24.08, 47.05 30.62, 44.56 34.62 C42.07 38.63, 36.48 42.07, 31.69 43.4 C26.89 44.73, 20.73 44.32, 15.81 42.63 C10.88 40.93, 4.78 37.45, 2.12 33.23 C-0.53 29.02, -1.25 22.16, -0.13 17.34 C0.99 12.52, 4.12 7.04, 8.84 4.33 C13.56 1.62, 24.55 1.49, 28.2 1.09 C31.84 0.7, 30.92 1.83, 30.73 1.97 M34.79 2.19 C39.26 3.67, 43.71 8.02, 45.57 12.62 C47.42 17.22, 47.21 25.01, 45.91 29.8 C44.6 34.59, 41.61 38.7, 37.73 41.36 C33.84 44.02, 27.87 46.43, 22.58 45.74 C17.29 45.05, 9.94 40.92, 6 37.24 C2.05 33.57, -1.07 28.18, -1.08 23.66 C-1.08 19.14, 2.98 13.92, 5.97 10.12 C8.96 6.32, 12.05 2.16, 16.88 0.85 C21.71 -0.45, 32.03 1.86, 34.95 2.29 C37.87 2.72, 34.84 2.91, 34.42 3.41" stroke="#000000" stroke-width="1" fill="none"></path></g><g stroke-linecap="round" transform="translate(17.11418431688685 375.79830390271064) rotate(0 24.63815525382074 23.978204666664794)"><path d="M35.55 2.09 C40.32 3.95, 45.94 8.64, 48.01 13.54 C50.09 18.44, 49.72 26.52, 47.98 31.5 C46.23 36.47, 41.94 40.51, 37.54 43.37 C33.15 46.23, 26.71 49.05, 21.62 48.66 C16.54 48.27, 10.78 44.9, 7.04 41.02 C3.31 37.14, -0.3 30.63, -0.77 25.38 C-1.25 20.12, 0.83 13.57, 4.17 9.49 C7.51 5.41, 13.71 1.86, 19.27 0.91 C24.83 -0.03, 34.21 3.17, 37.54 3.79 C40.87 4.41, 39.37 4.35, 39.25 4.63 M34.86 2.66 C39.82 4.19, 44.85 7.48, 47.04 11.77 C49.23 16.06, 49.3 23.32, 48 28.42 C46.69 33.52, 43.04 39.05, 39.23 42.36 C35.43 45.67, 30.29 48.38, 25.18 48.3 C20.08 48.22, 12.65 45.39, 8.6 41.87 C4.54 38.34, 1.64 32.24, 0.86 27.15 C0.09 22.05, 1.35 15.53, 3.92 11.3 C6.5 7.08, 11.26 3.38, 16.32 1.8 C21.39 0.23, 31.24 1.97, 34.32 1.86 C37.41 1.74, 34.99 0.57, 34.82 1.13" stroke="none" stroke-width="0" fill="#ced4da"></path><path d="M23.42 -0.41 C28.59 -1.17, 35.34 0.65, 39.6 3.77 C43.85 6.9, 47.6 13.24, 48.94 18.35 C50.27 23.46, 49.96 29.79, 47.6 34.45 C45.23 39.12, 39.76 44.38, 34.74 46.35 C29.71 48.31, 22.5 47.8, 17.44 46.24 C12.38 44.69, 7.38 41.1, 4.37 37.01 C1.35 32.93, -1.04 26.6, -0.65 21.72 C-0.26 16.84, 1.99 11.27, 6.7 7.74 C11.41 4.2, 23.5 1.59, 27.61 0.51 C31.72 -0.57, 31.6 0.77, 31.34 1.25 M25.03 0.05 C29.79 -0.37, 35.96 1.72, 40.15 5.21 C44.34 8.7, 49.19 15.57, 50.19 20.99 C51.18 26.41, 48.87 33.56, 46.12 37.73 C43.37 41.9, 38.87 44.79, 33.71 46.03 C28.54 47.28, 20.25 46.72, 15.1 45.21 C9.96 43.69, 5.12 41.45, 2.83 36.94 C0.55 32.43, 0.31 23.29, 1.41 18.14 C2.5 12.98, 5.43 8.96, 9.39 6 C13.34 3.04, 22.39 1.43, 25.14 0.38 C27.88 -0.67, 25.69 -0.57, 25.84 -0.3" stroke="#ced4da" stroke-width="1" fill="none"></path></g><g stroke-linecap="round" transform="translate(83.54921009058171 357.31968746234526) rotate(0 29.697776422016148 31.89761171253582)"><path d="M27.8 0.82 C33.78 0.06, 41.5 2.32, 46.76 6.2 C52.02 10.09, 57.9 17.46, 59.36 24.13 C60.82 30.8, 58.39 40.01, 55.51 46.25 C52.63 52.49, 47.75 59.03, 42.07 61.58 C36.4 64.13, 27.7 63.73, 21.47 61.55 C15.23 59.38, 8.25 54.07, 4.68 48.52 C1.1 42.98, -0.84 34.96, 0.01 28.29 C0.86 21.61, 4.04 13.11, 9.77 8.49 C15.49 3.86, 29.46 1.43, 34.35 0.53 C39.24 -0.36, 39.23 2.48, 39.11 3.1 M26.82 0.97 C32.78 -0.58, 39.71 0.8, 44.85 4.25 C49.98 7.7, 55.64 14.81, 57.61 21.67 C59.58 28.53, 59 38.94, 56.68 45.42 C54.37 51.9, 49.31 57.52, 43.73 60.56 C38.16 63.59, 29.54 65.14, 23.22 63.64 C16.9 62.13, 9.7 57.16, 5.82 51.53 C1.95 45.91, -0.48 36.66, -0.05 29.89 C0.39 23.12, 4.07 15.62, 8.42 10.89 C12.76 6.17, 23.26 3.11, 26.02 1.53 C28.77 -0.06, 24.67 0.97, 24.92 1.37" stroke="none" stroke-width="0" fill="#ced4da"></path><path d="M22.03 1.62 C27.73 -0.39, 36.18 0.68, 42.05 3.68 C47.92 6.68, 54.5 13.49, 57.23 19.63 C59.96 25.77, 60.15 34.2, 58.42 40.54 C56.7 46.89, 52.31 53.85, 46.87 57.7 C41.42 61.55, 32.26 64.37, 25.74 63.63 C19.23 62.9, 12.04 58.32, 7.77 53.3 C3.49 48.27, 0.29 40.03, 0.08 33.48 C-0.13 26.92, 2.1 19.42, 6.51 13.99 C10.92 8.55, 22.67 3.19, 26.56 0.88 C30.45 -1.43, 29.71 -0.31, 29.85 0.12 M38.23 0.63 C43.92 2.31, 50.17 9.66, 53.78 15.55 C57.39 21.44, 60.29 29.19, 59.9 35.97 C59.51 42.74, 56.29 51.67, 51.44 56.19 C46.6 60.71, 37.58 62.92, 30.82 63.1 C24.05 63.28, 15.62 61.09, 10.85 57.28 C6.09 53.47, 3.69 46.8, 2.2 40.23 C0.72 33.65, -0.79 24.08, 1.95 17.81 C4.68 11.54, 12.5 5.25, 18.61 2.62 C24.71 0, 35.46 2, 38.56 2.05 C41.67 2.1, 37.5 2.61, 37.24 2.92" stroke="#ced4da" stroke-width="1" fill="none"></path></g><g stroke-linecap="round" transform="translate(104.22766182146256 379.7580074256437) rotate(0 28.37787524770431 21.778369376145122)"><path d="M20.14 0.24 C25.47 -1.24, 33.07 0.46, 38.48 2.21 C43.9 3.97, 49.71 6.65, 52.62 10.77 C55.53 14.9, 57.01 22.2, 55.97 26.97 C54.92 31.73, 51.19 36.6, 46.33 39.36 C41.48 42.11, 33.06 43.74, 26.83 43.49 C20.59 43.24, 13.28 40.91, 8.92 37.88 C4.56 34.84, 1.48 29.8, 0.69 25.26 C-0.1 20.72, 0.22 14.9, 4.16 10.64 C8.1 6.39, 20.07 1.45, 24.31 -0.26 C28.55 -1.98, 29.43 -0.04, 29.6 0.36 M20.47 0.19 C25.55 -1.65, 33 -0.63, 38.39 1.21 C43.79 3.05, 49.67 6.97, 52.84 11.23 C56 15.49, 58.51 22.16, 57.38 26.79 C56.25 31.41, 50.99 36.26, 46.07 39 C41.14 41.75, 33.92 43.45, 27.83 43.25 C21.74 43.05, 14.21 40.8, 9.51 37.8 C4.82 34.81, 0.43 29.86, -0.32 25.27 C-1.08 20.69, 1.42 14.5, 4.97 10.29 C8.53 6.08, 18.45 1.28, 21.02 0.01 C23.6 -1.25, 20.4 2.12, 20.41 2.7" stroke="none" stroke-width="0" fill="#ced4da"></path><path d="M25.45 -0.49 C31.08 -1.18, 39.04 1.2, 44.16 3.86 C49.28 6.52, 54.47 11, 56.18 15.48 C57.89 19.96, 56.98 26.61, 54.41 30.74 C51.84 34.88, 46.13 38.33, 40.75 40.28 C35.38 42.23, 28.11 43.34, 22.16 42.45 C16.21 41.57, 8.84 38.47, 5.05 34.99 C1.25 31.51, -1.17 26.19, -0.62 21.6 C-0.06 17, 3.62 11.02, 8.36 7.43 C13.09 3.84, 24.36 1.05, 27.8 0.04 C31.23 -0.97, 29.07 0.91, 28.99 1.37 M32.69 -0.37 C38.66 0.25, 47.3 4.61, 51.38 8.53 C55.46 12.46, 57.19 18.75, 57.15 23.2 C57.12 27.64, 55.26 32.04, 51.17 35.19 C47.07 38.35, 38.78 40.97, 32.57 42.11 C26.36 43.24, 18.88 44.35, 13.88 42 C8.89 39.64, 4.61 32.47, 2.62 27.96 C0.63 23.45, 0 19.08, 1.94 14.96 C3.89 10.84, 8.91 5.82, 14.27 3.26 C19.63 0.69, 30.78 0.04, 34.11 -0.44 C37.45 -0.92, 34.56 0, 34.27 0.39" stroke="#ced4da" stroke-width="1" fill="none"></path></g><g stroke-linecap="round" transform="translate(54.51138425571651 348.96031335836875) rotate(0 23.75822113761285 23.97820466666485)"><path d="M21.82 -0.26 C26.83 -1.02, 34.82 1.12, 38.91 4.25 C43 7.39, 45.22 13.37, 46.35 18.55 C47.48 23.73, 47.85 30.86, 45.7 35.32 C43.54 39.77, 38.26 43.49, 33.41 45.31 C28.55 47.12, 21.55 47.53, 16.57 46.19 C11.59 44.85, 6.19 41.48, 3.51 37.25 C0.82 33.03, -0.28 25.98, 0.45 20.85 C1.19 15.72, 4.03 9.87, 7.93 6.49 C11.83 3.12, 20.87 1.46, 23.86 0.6 C26.86 -0.26, 25.87 1.15, 25.91 1.34 M31.5 0.85 C35.89 2.1, 41.63 6.9, 44.15 11.74 C46.67 16.58, 47.49 24.69, 46.63 29.9 C45.77 35.11, 42.91 39.9, 39.01 43.01 C35.11 46.12, 28.46 48.68, 23.26 48.56 C18.06 48.44, 11.67 45.85, 7.83 42.27 C3.99 38.69, 0.84 32.1, 0.2 27.08 C-0.43 22.06, 1.35 16.23, 4.02 12.14 C6.69 8.05, 11.7 4.22, 16.25 2.54 C20.8 0.87, 28.46 2.09, 31.32 2.09 C34.19 2.09, 33.33 2.06, 33.43 2.55" stroke="none" stroke-width="0" fill="#ced4da"></path><path d="M31.75 2.1 C36.51 3.6, 42.44 8.79, 45.02 13.2 C47.6 17.61, 48.21 23.75, 47.23 28.56 C46.25 33.37, 43.3 38.83, 39.15 42.07 C35 45.3, 27.62 48.11, 22.34 47.96 C17.06 47.82, 11.16 44.72, 7.48 41.21 C3.81 37.71, 0.81 31.74, 0.28 26.93 C-0.25 22.11, 1.6 16.5, 4.31 12.33 C7.03 8.16, 11.56 3.62, 16.59 1.9 C21.61 0.19, 31.06 1.67, 34.47 2.04 C37.88 2.41, 37.14 3.61, 37.05 4.12 M22.24 1.22 C27.17 0.93, 34.75 2.34, 39.1 5.49 C43.45 8.65, 47.52 15.27, 48.35 20.12 C49.18 24.98, 46.89 30.3, 44.09 34.61 C41.28 38.93, 35.89 43.81, 31.51 46 C27.12 48.18, 22.64 49.24, 17.79 47.72 C12.94 46.2, 5.21 41.38, 2.4 36.87 C-0.41 32.35, -0.04 25.62, 0.93 20.62 C1.91 15.62, 4.71 10.13, 8.25 6.86 C11.79 3.59, 19.78 2.14, 22.17 0.99 C24.56 -0.16, 22.54 -0.48, 22.59 -0.02" stroke="#ced4da" stroke-width="1" fill="none"></path></g><g stroke-linecap="round" transform="translate(34.27289958294671 361.2793909852788) rotate(0 32.777545828743655 29.917759951068035)"><path d="M25.44 1.4 C31.62 -0.23, 41.02 -0.2, 47.25 2.79 C53.49 5.78, 60.01 13.24, 62.85 19.35 C65.69 25.47, 66.53 33.53, 64.31 39.49 C62.09 45.44, 55.62 51.79, 49.54 55.11 C43.46 58.42, 34.56 60.15, 27.8 59.35 C21.04 58.56, 13.6 55.01, 8.97 50.36 C4.33 45.7, 0.35 37.96, 0.02 31.42 C-0.32 24.89, 2.06 16.39, 6.97 11.17 C11.89 5.96, 25.19 1.93, 29.52 0.13 C33.85 -1.68, 33.09 -0.29, 32.95 0.34 M42.33 1.1 C48.56 2.72, 55.98 8.2, 60.01 13.78 C64.03 19.37, 67.33 28.21, 66.48 34.62 C65.63 41.03, 60.27 48.11, 54.91 52.26 C49.55 56.41, 41.36 59.36, 34.33 59.53 C27.29 59.71, 18.39 57.13, 12.69 53.3 C6.98 49.47, 1.46 42.79, 0.1 36.55 C-1.27 30.31, 0.86 21.78, 4.51 15.87 C8.15 9.96, 15.43 3.28, 21.94 1.1 C28.45 -1.09, 40 2.54, 43.57 2.78 C47.14 3.02, 43.43 2.4, 43.38 2.51" stroke="none" stroke-width="0" fill="#ced4da"></path><path d="M25.37 1.28 C31.76 -0.41, 41.72 0.39, 47.92 3.24 C54.13 6.09, 59.99 12.69, 62.61 18.38 C65.22 24.07, 65.55 31.41, 63.62 37.38 C61.7 43.35, 56.91 50.47, 51.06 54.19 C45.21 57.91, 35.61 60.13, 28.52 59.68 C21.42 59.23, 13.1 56.04, 8.5 51.49 C3.9 46.94, 1.17 38.88, 0.91 32.35 C0.65 25.82, 1.99 17.53, 6.95 12.29 C11.92 7.06, 25.6 2.75, 30.7 0.95 C35.79 -0.85, 37.35 1.16, 37.52 1.49 M34.43 0.7 C41.29 0.75, 49.28 4.65, 54.58 8.61 C59.89 12.57, 65.29 18.57, 66.24 24.49 C67.19 30.4, 64.11 38.25, 60.3 44.1 C56.48 49.94, 49.71 57.46, 43.34 59.56 C36.98 61.66, 28.59 59.08, 22.09 56.69 C15.6 54.3, 7.96 50.55, 4.37 45.22 C0.79 39.89, -0.82 31.24, 0.58 24.7 C1.98 18.15, 7.17 10.14, 12.77 5.96 C18.37 1.78, 30.88 0.61, 34.2 -0.37 C37.52 -1.36, 32.64 -0.5, 32.71 0.03" stroke="#ced4da" stroke-width="1" fill="none"></path></g><g transform="translate(21.8845475022124 385.28625239412537) rotate(0 64.4532470703125 12)"><text x="64.4532470703125" y="0" font-family="Virgil, Segoe UI Emoji" font-size="20.529302206709755px" fill="#000000" text-anchor="middle" style="white-space: pre;" direction="ltr" dominant-baseline="text-before-edge">Micro service</text></g><g stroke-linecap="round" transform="translate(345.98968777671257 389.0299937415661) rotate(0 59.58608169516236 21.26076154381377)"><path d="M10.61 -0.21 L111.94 2.06 L119.26 4.77 L119 35.79 L114.78 41.16 L107.15 41.77 L4.69 43.63 L-0.44 36.99 L-0.98 11 L3.61 3.29 L11.57 0.98" stroke="none" stroke-width="0" fill="#ced4da"></path><path d="M10.63 0 M10.63 0 C41.89 1.14, 69.37 -0.07, 108.54 0 M10.63 0 C31.81 -0.04, 54.13 1.13, 108.54 0 M108.54 0 C114.2 -0.51, 119.17 2.36, 119.17 10.63 M108.54 0 C117.69 -1.56, 118.9 1.8, 119.17 10.63 M119.17 10.63 C120.99 19.09, 120.47 25.79, 119.17 31.89 M119.17 10.63 C118.5 17.79, 119.33 24.03, 119.17 31.89 M119.17 31.89 C120.95 40.49, 115.03 42.57, 108.54 42.52 M119.17 31.89 C118.68 38.28, 113.97 43.61, 108.54 42.52 M108.54 42.52 C74.15 42.25, 38.03 43.67, 10.63 42.52 M108.54 42.52 C73.62 42.11, 37.98 42.56, 10.63 42.52 M10.63 42.52 C4.48 41.21, -1.2 40.68, 0 31.89 M10.63 42.52 C5 41.04, 0.05 40.19, 0 31.89 M0 31.89 C0.1 28.83, 0.58 23.98, 0 10.63 M0 31.89 C0.61 24.05, 0.97 17.45, 0 10.63 M0 10.63 C-0.05 2.83, 4.15 -0.93, 10.63 0 M0 10.63 C-2.1 5.4, 4.35 -2.03, 10.63 0" stroke="#000000" stroke-width="1" fill="none"></path></g><g stroke-linecap="round" transform="translate(378.99981754210467 340.913533405569) rotate(0 40.283548188278814 38.884813876185774)"><path d="M46.32 0.97 C53.33 1.3, 61.39 4.2, 66.83 8.74 C72.28 13.29, 77.08 21.26, 79 28.23 C80.93 35.2, 80.35 44.02, 78.37 50.58 C76.4 57.14, 72.64 63, 67.15 67.6 C61.66 72.21, 52.59 77.22, 45.43 78.22 C38.28 79.22, 30.7 76.58, 24.2 73.62 C17.7 70.66, 10.62 66.09, 6.43 60.45 C2.24 54.81, -0.95 46.87, -0.93 39.8 C-0.92 32.73, 2.33 24.01, 6.52 18.02 C10.7 12.04, 16.18 6.44, 24.2 3.91 C32.23 1.37, 48.51 2.52, 54.66 2.83 C60.82 3.14, 61.34 5.33, 61.13 5.78 M57.53 4.45 C63.82 6.68, 70.05 11.43, 74.09 17.45 C78.13 23.46, 82.08 33.26, 81.76 40.53 C81.45 47.81, 76.74 55.18, 72.21 61.1 C67.68 67.02, 61.16 73.28, 54.6 76.07 C48.03 78.85, 39.72 79.17, 32.8 77.8 C25.88 76.43, 18.42 72.47, 13.06 67.84 C7.7 63.21, 2.62 56.86, 0.64 50 C-1.35 43.15, -1.3 33.72, 1.16 26.7 C3.61 19.68, 9.46 12.31, 15.37 7.89 C21.29 3.48, 29.68 0.87, 36.65 0.22 C43.62 -0.43, 53.88 3.27, 57.18 3.98 C60.48 4.69, 56.39 4.09, 56.43 4.5" stroke="none" stroke-width="0" fill="#ced4da"></path><path d="M27.42 2.42 C33.67 -0.09, 43.24 -0.88, 50.28 1.02 C57.32 2.92, 64.76 8.49, 69.63 13.81 C74.5 19.13, 78.32 26.12, 79.5 32.93 C80.68 39.73, 79.45 48.18, 76.72 54.62 C73.98 61.06, 68.99 67.62, 63.11 71.55 C57.23 75.49, 48.76 78.33, 41.44 78.25 C34.11 78.18, 25.32 74.77, 19.15 71.1 C12.98 67.43, 7.42 62.54, 4.41 56.24 C1.41 49.95, 0.26 40.52, 1.12 33.33 C1.99 26.14, 3.99 18.66, 9.6 13.12 C15.21 7.58, 29.28 2.15, 34.81 0.08 C40.34 -2, 42.5 -0.17, 42.8 0.66 M25.3 3.8 C31.46 0.93, 40.75 -0.73, 47.81 0.71 C54.86 2.14, 62.15 7.4, 67.61 12.42 C73.07 17.44, 78.61 24.07, 80.56 30.82 C82.51 37.56, 81.84 46.44, 79.3 52.9 C76.76 59.36, 71.34 65.52, 65.32 69.57 C59.29 73.62, 50.54 76.76, 43.17 77.19 C35.79 77.61, 27.24 75.33, 21.06 72.11 C14.89 68.9, 9.46 63.65, 6.14 57.87 C2.81 52.1, 0.62 44.58, 1.12 37.46 C1.62 30.34, 4.97 21.04, 9.15 15.15 C13.34 9.27, 23.41 4.31, 26.22 2.14 C29.03 -0.04, 25.66 1.3, 26.01 2.11" stroke="#000000" stroke-width="1" fill="none"></path></g><g stroke-linecap="round" transform="translate(326.4074074074074 376.1616380703135) rotate(0 27.974686241860297 27.135445654604496)"><path d="M25.46 0.73 C31.27 0, 39.44 2.03, 44.39 5.11 C49.33 8.19, 53.65 13.65, 55.13 19.21 C56.61 24.76, 55.64 33.03, 53.27 38.44 C50.89 43.85, 46.33 49.16, 40.87 51.68 C35.42 54.2, 26.39 55.07, 20.53 53.55 C14.67 52.04, 8.98 47.2, 5.7 42.57 C2.41 37.94, 0.58 31.59, 0.82 25.78 C1.07 19.97, 2.39 11.92, 7.15 7.73 C11.9 3.54, 25.33 1.79, 29.35 0.64 C33.38 -0.51, 31.35 0.65, 31.29 0.84 M41.11 3.26 C46.47 5.41, 51.9 11.63, 54.13 16.61 C56.36 21.58, 56.09 27.76, 54.5 33.11 C52.9 38.46, 49.23 45.18, 44.58 48.72 C39.92 52.26, 32.68 54.88, 26.57 54.35 C20.46 53.83, 12.26 49.87, 7.92 45.56 C3.58 41.24, 1.21 33.99, 0.53 28.48 C-0.14 22.97, 0.38 17.34, 3.89 12.52 C7.39 7.69, 15.51 1.39, 21.59 -0.48 C27.67 -2.35, 37.09 0.82, 40.36 1.32 C43.63 1.83, 41.37 1.93, 41.22 2.57" stroke="none" stroke-width="0" fill="#ced4da"></path><path d="M32.05 -0.49 C37.74 -0.12, 43.94 3.72, 48.07 7.99 C52.19 12.27, 56.39 19.34, 56.8 25.18 C57.21 31.01, 54.26 38.18, 50.53 42.99 C46.81 47.8, 40.26 52.59, 34.44 54.05 C28.61 55.52, 20.87 54.49, 15.58 51.78 C10.29 49.07, 5.24 43.14, 2.71 37.79 C0.17 32.44, -1.4 25.11, 0.38 19.67 C2.15 14.24, 7.91 8.32, 13.36 5.18 C18.8 2.03, 29.43 1.51, 33.04 0.78 C36.66 0.05, 35.04 0.46, 35.03 0.81 M23.87 -0.22 C29.37 -1.55, 38.14 0.57, 43.52 3.69 C48.91 6.82, 54.53 12.99, 56.18 18.53 C57.82 24.07, 55.86 31.29, 53.4 36.93 C50.93 42.58, 46.7 49.43, 41.39 52.4 C36.08 55.37, 27.46 56.15, 21.54 54.76 C15.61 53.37, 9.5 48.95, 5.85 44.05 C2.2 39.14, -0.61 31.27, -0.37 25.34 C-0.13 19.4, 3.22 12.43, 7.29 8.43 C11.36 4.43, 21.02 2.48, 24.03 1.36 C27.04 0.24, 24.91 1.28, 25.33 1.72" stroke="#000000" stroke-width="1" fill="none"></path></g><g stroke-linecap="round" transform="translate(356.6200685486119 354.3413828016623) rotate(0 19.2035461555663 17.262533310169488)"><path d="M16.86 1.03 C20.89 0.24, 26.32 1.06, 29.68 2.79 C33.04 4.53, 35.72 7.88, 37.01 11.43 C38.3 14.98, 38.82 20.73, 37.42 24.1 C36.03 27.47, 32.27 29.93, 28.62 31.66 C24.97 33.39, 19.68 34.98, 15.52 34.51 C11.36 34.03, 6.16 31.87, 3.65 28.82 C1.14 25.77, 0.39 19.9, 0.47 16.22 C0.56 12.54, 1.05 9.53, 4.17 6.72 C7.29 3.91, 16.41 0.33, 19.18 -0.64 C21.95 -1.6, 21.06 0.39, 20.81 0.93 M21.04 0.7 C25.03 0.47, 30.48 1.8, 33.13 4.38 C35.78 6.97, 36.73 12.25, 36.93 16.22 C37.13 20.19, 36.37 25.3, 34.34 28.23 C32.32 31.16, 28.69 32.92, 24.79 33.8 C20.89 34.68, 14.85 35.23, 10.93 33.52 C7.01 31.8, 2.81 26.83, 1.28 23.53 C-0.24 20.22, 0.89 17, 1.76 13.68 C2.64 10.36, 3.64 5.65, 6.53 3.6 C9.42 1.55, 16.89 1.83, 19.11 1.4 C21.32 0.96, 19.63 0.87, 19.84 0.98" stroke="none" stroke-width="0" fill="#ced4da"></path><path d="M14.93 -0.07 C18.76 -0.91, 24.34 1.18, 27.95 3.09 C31.56 5, 35.13 8.04, 36.61 11.38 C38.09 14.72, 38.03 19.64, 36.84 23.14 C35.66 26.65, 32.87 30.48, 29.49 32.42 C26.11 34.36, 20.71 35.58, 16.58 34.79 C12.45 34, 7.4 30.46, 4.72 27.67 C2.04 24.89, 0.42 21.76, 0.49 18.09 C0.56 14.42, 2.19 8.8, 5.14 5.66 C8.1 2.52, 15.82 0.14, 18.23 -0.77 C20.63 -1.68, 19.64 -0.19, 19.57 0.2 M23.27 0.47 C26.75 1.47, 31.39 5.38, 33.74 8.32 C36.09 11.26, 37.64 14.47, 37.35 18.11 C37.07 21.76, 34.52 27.42, 32.01 30.18 C29.51 32.93, 26.01 34.31, 22.33 34.63 C18.64 34.95, 13.34 34.26, 9.9 32.12 C6.45 29.97, 3.06 25.46, 1.67 21.76 C0.28 18.06, 0.07 13.39, 1.57 9.92 C3.07 6.44, 6.79 2.44, 10.68 0.92 C14.56 -0.6, 22.54 0.6, 24.86 0.8 C27.18 1.01, 24.67 1.99, 24.59 2.14" stroke="#000000" stroke-width="1" fill="none"></path></g><g stroke-linecap="round" transform="translate(432.7112151264796 386.7920188422199) rotate(0 23.77848330558129 22.379748993488192)"><path d="M16.23 1.94 C20.62 -0.09, 27.33 -0.68, 31.95 0.88 C36.57 2.44, 41.3 7.08, 43.95 11.3 C46.59 15.52, 48.72 21.52, 47.81 26.21 C46.91 30.9, 42.43 36.44, 38.52 39.44 C34.61 42.43, 29.2 44.07, 24.36 44.19 C19.51 44.31, 13.56 43.2, 9.46 40.15 C5.36 37.1, 0.68 30.59, -0.25 25.91 C-1.17 21.22, 1.03 16.23, 3.91 12.04 C6.78 7.85, 14.24 2.82, 17.02 0.78 C19.8 -1.26, 20.23 -0.58, 20.59 -0.2 M26.18 0.7 C30.8 0.43, 36.27 1.87, 39.95 4.97 C43.63 8.07, 47.46 14.26, 48.27 19.3 C49.08 24.33, 47.82 31.16, 44.82 35.18 C41.81 39.19, 35.27 42.23, 30.21 43.38 C25.16 44.53, 19.35 43.77, 14.48 42.1 C9.62 40.42, 3.21 37.75, 1 33.33 C-1.2 28.91, -0.27 20.64, 1.25 15.57 C2.78 10.49, 5.86 5.55, 10.13 2.87 C14.4 0.18, 24.22 -0.15, 26.88 -0.54 C29.54 -0.93, 26.29 0.18, 26.09 0.53" stroke="none" stroke-width="0" fill="#ced4da"></path><path d="M13.42 1.42 C17.72 -0.73, 25.87 -1.05, 30.89 0.23 C35.9 1.51, 40.73 5, 43.52 9.11 C46.32 13.22, 48.09 19.94, 47.64 24.87 C47.2 29.81, 44.42 35.41, 40.86 38.72 C37.3 42.04, 31.54 44.34, 26.27 44.75 C21 45.15, 13.37 43.8, 9.23 41.16 C5.08 38.52, 2.67 33.59, 1.4 28.91 C0.13 24.23, -0.75 17.83, 1.59 13.06 C3.92 8.3, 12.55 2.4, 15.39 0.32 C18.22 -1.75, 18.37 0.05, 18.59 0.62 M34.67 1.6 C39.51 3.33, 45.11 8.33, 47.05 12.71 C48.99 17.09, 47.87 22.98, 46.31 27.88 C44.75 32.78, 41.91 39.13, 37.69 42.12 C33.47 45.12, 26.15 46.46, 20.99 45.85 C15.84 45.23, 10.33 42.18, 6.76 38.44 C3.19 34.71, 0 28.36, -0.4 23.44 C-0.8 18.51, 1.36 12.51, 4.37 8.9 C7.37 5.28, 12.52 2.65, 17.63 1.75 C22.73 0.85, 31.98 3.13, 35 3.5 C38.03 3.88, 36.09 3.85, 35.78 4.01" stroke="#000000" stroke-width="1" fill="none"></path></g><g stroke-linecap="round" transform="translate(333.521591724294 383.03830390271054) rotate(0 24.63815525382074 23.97820466666485)"><path d="M30.91 0.95 C35.7 1.61, 40.96 5.26, 44.07 9.44 C47.18 13.62, 49.79 20.98, 49.56 26.03 C49.32 31.09, 46.36 36.07, 42.68 39.75 C39 43.44, 32.85 47.29, 27.48 48.12 C22.11 48.95, 14.79 47.72, 10.46 44.72 C6.12 41.72, 2.98 35.03, 1.48 30.12 C-0.02 25.21, -0.69 19.96, 1.45 15.25 C3.58 10.54, 9.23 4.15, 14.29 1.87 C19.36 -0.41, 28.88 1.41, 31.85 1.57 C34.82 1.73, 32.22 2.53, 32.12 2.85 M33.37 0.92 C37.89 2.26, 41.97 7.81, 44.43 12.52 C46.89 17.23, 48.71 24.24, 48.14 29.17 C47.56 34.1, 44.91 38.88, 40.96 42.08 C37.02 45.29, 29.89 48.56, 24.46 48.41 C19.03 48.26, 12.18 44.43, 8.38 41.2 C4.58 37.97, 2.75 33.78, 1.65 29.01 C0.55 24.24, -0.34 16.9, 1.8 12.55 C3.95 8.2, 9.46 4.7, 14.52 2.93 C19.57 1.16, 29.11 2.07, 32.13 1.93 C35.14 1.79, 32.74 1.62, 32.59 2.1" stroke="none" stroke-width="0" fill="#ced4da"></path><path d="M31.86 2.14 C36.74 3.51, 42.34 7.45, 45.12 11.72 C47.89 15.99, 49.13 22.66, 48.51 27.76 C47.89 32.85, 45.2 38.84, 41.4 42.29 C37.6 45.74, 31.05 48.51, 25.7 48.44 C20.36 48.37, 13.45 45.05, 9.33 41.86 C5.21 38.67, 1.89 34.32, 0.97 29.32 C0.05 24.31, 1.33 16.56, 3.82 11.82 C6.3 7.07, 11.04 2.58, 15.86 0.85 C20.68 -0.88, 29.69 1.21, 32.73 1.45 C35.77 1.69, 34.02 1.72, 34.09 2.28 M15.13 2.86 C19.61 0.83, 26.92 -0.47, 31.85 1.2 C36.78 2.87, 41.73 8.37, 44.73 12.86 C47.73 17.36, 50.33 23.2, 49.86 28.16 C49.39 33.13, 45.93 39.43, 41.9 42.66 C37.88 45.89, 31.21 47.64, 25.72 47.53 C20.23 47.42, 13.16 45.34, 8.95 41.99 C4.74 38.64, 1.24 32.35, 0.48 27.43 C-0.28 22.52, 1.64 16.6, 4.4 12.5 C7.16 8.4, 14.88 4.68, 17.03 2.85 C19.19 1.02, 17.34 1.42, 17.32 1.52" stroke="#ced4da" stroke-width="1" fill="none"></path></g><g stroke-linecap="round" transform="translate(399.9566174979891 364.55968746234515) rotate(0 29.697776422016148 31.89761171253582)"><path d="M38.35 0.91 C44.07 2.31, 50.56 8.77, 54.13 14.55 C57.7 20.34, 60.57 28.86, 59.79 35.61 C59.01 42.36, 54.1 50.46, 49.45 55.05 C44.81 59.64, 38 62.66, 31.9 63.16 C25.8 63.66, 18.14 62.11, 12.85 58.06 C7.57 54, 1.67 45.43, 0.18 38.82 C-1.3 32.21, 1.11 24.39, 3.94 18.37 C6.76 12.35, 10.75 5.46, 17.14 2.7 C23.54 -0.06, 37.52 1.37, 42.31 1.83 C47.1 2.28, 46.14 4.67, 45.87 5.42 M34.97 -0.78 C41 -0.18, 49.32 5.43, 53.62 11.01 C57.92 16.59, 61.02 25.8, 60.76 32.68 C60.5 39.57, 56.39 47.3, 52.06 52.3 C47.74 57.3, 41.29 61.35, 34.79 62.71 C28.28 64.07, 18.46 64.07, 13.02 60.44 C7.58 56.82, 3.94 47.84, 2.14 40.95 C0.34 34.06, -0.19 25.36, 2.24 19.1 C4.66 12.84, 11.05 6.47, 16.67 3.39 C22.29 0.31, 32.83 1.09, 35.98 0.62 C39.13 0.14, 35.57 0.15, 35.58 0.53" stroke="none" stroke-width="0" fill="#ced4da"></path><path d="M20.43 1.37 C26.09 -1.21, 34.23 -1.07, 40.09 1.44 C45.95 3.95, 52.41 10.35, 55.61 16.43 C58.8 22.51, 60.32 31.25, 59.26 37.92 C58.2 44.58, 54.34 52.01, 49.27 56.41 C44.2 60.8, 35.18 64.16, 28.84 64.28 C22.49 64.4, 16.05 61.57, 11.21 57.13 C6.36 52.69, 1.11 44.64, -0.22 37.63 C-1.56 30.62, -0.71 21.3, 3.18 15.09 C7.08 8.89, 19.17 2.71, 23.15 0.4 C27.14 -1.91, 26.77 0.76, 27.07 1.21 M27.24 -0.76 C33.16 -2.03, 40.23 -0.11, 45.54 3.9 C50.85 7.91, 57.13 16.38, 59.09 23.3 C61.06 30.23, 59.88 39.15, 57.33 45.45 C54.78 51.75, 49.55 58.17, 43.79 61.1 C38.03 64.03, 29.13 64.64, 22.77 63.01 C16.4 61.38, 9.55 56.55, 5.61 51.32 C1.67 46.09, -1.31 38.29, -0.88 31.63 C-0.45 24.96, 3.5 16.35, 8.19 11.31 C12.87 6.27, 24.34 3.12, 27.23 1.39 C30.12 -0.34, 25.74 0.67, 25.53 0.93" stroke="#ced4da" stroke-width="1" fill="none"></path></g><g stroke-linecap="round" transform="translate(420.6350692288697 386.9980074256436) rotate(0 28.37787524770431 21.778369376145122)"><path d="M39.39 1.54 C44.8 3.12, 51.35 8.59, 54.14 12.7 C56.93 16.81, 57.62 21.7, 56.13 26.19 C54.65 30.68, 50.28 36.63, 45.26 39.64 C40.23 42.66, 31.99 44.73, 25.98 44.27 C19.98 43.81, 13.65 40.08, 9.25 36.87 C4.84 33.66, 0.21 29.66, -0.43 25.02 C-1.07 20.39, 1.92 12.99, 5.4 9.05 C8.87 5.12, 13.89 2.02, 20.43 1.4 C26.97 0.79, 39.71 4.18, 44.66 5.36 C49.6 6.54, 50.14 8.29, 50.12 8.49 M33.2 1.36 C38.67 2.35, 46.14 6.36, 50.09 9.92 C54.05 13.48, 57.17 18.22, 56.94 22.72 C56.72 27.23, 53 33.76, 48.74 36.97 C44.47 40.19, 37.08 41.39, 31.34 42.01 C25.6 42.62, 19.53 42.9, 14.3 40.65 C9.08 38.41, 2.23 32.87, -0.02 28.55 C-2.27 24.24, -1.64 19.02, 0.82 14.77 C3.27 10.52, 9.08 5.37, 14.71 3.05 C20.34 0.72, 31.42 0.98, 34.59 0.84 C37.77 0.7, 34 1.92, 33.76 2.19" stroke="none" stroke-width="0" fill="#ced4da"></path><path d="M22.53 0.61 C28.16 -0.61, 36.28 0.66, 41.75 2.96 C47.23 5.26, 53.07 9.96, 55.39 14.38 C57.7 18.79, 57.71 25.24, 55.64 29.45 C53.57 33.66, 48.18 37.24, 42.96 39.64 C37.73 42.05, 30.18 44.6, 24.3 43.88 C18.42 43.16, 11.7 39.09, 7.69 35.32 C3.67 31.55, 0.56 25.85, 0.21 21.26 C-0.15 16.68, 1.44 11.38, 5.55 7.82 C9.67 4.26, 21.18 0.99, 24.9 -0.08 C28.63 -1.15, 27.91 1.05, 27.9 1.4 M27.33 -0.18 C33.06 -0.51, 40.47 3.07, 45.46 6.13 C50.44 9.19, 55.78 13.7, 57.24 18.19 C58.7 22.69, 57.28 29.16, 54.24 33.09 C51.19 37.03, 44.91 40.36, 38.98 41.81 C33.06 43.25, 24.54 43.44, 18.69 41.77 C12.84 40.1, 6.73 35.68, 3.88 31.78 C1.04 27.88, 0.42 22.57, 1.63 18.35 C2.83 14.13, 6.49 9.57, 11.13 6.44 C15.78 3.31, 26.6 0.61, 29.48 -0.45 C32.36 -1.5, 28.65 -0.14, 28.38 0.11" stroke="#ced4da" stroke-width="1" fill="none"></path></g><g stroke-linecap="round" transform="translate(370.9187916631238 356.2003133583684) rotate(0 23.75822113761285 23.97820466666485)"><path d="M29.42 1.09 C34.23 2.11, 40.8 6.1, 43.68 10.24 C46.56 14.39, 47.15 20.94, 46.7 25.94 C46.26 30.94, 44.33 36.49, 41.01 40.22 C37.7 43.95, 32.02 47.83, 26.79 48.32 C21.56 48.8, 13.82 46.02, 9.64 43.13 C5.46 40.25, 3.07 35.86, 1.71 31.01 C0.35 26.16, -0.56 18.99, 1.5 14.05 C3.56 9.12, 8.19 3.16, 14.06 1.4 C19.94 -0.36, 32.29 2.28, 36.75 3.47 C41.22 4.66, 41.14 8.14, 40.85 8.53 M29.65 -0.27 C34.74 0.73, 40.96 5.42, 43.93 9.53 C46.9 13.64, 47.82 19.42, 47.46 24.41 C47.1 29.39, 45.43 35.33, 41.79 39.42 C38.14 43.51, 30.61 48.37, 25.57 48.95 C20.54 49.54, 15.62 46.1, 11.59 42.92 C7.56 39.75, 2.79 34.68, 1.38 29.91 C-0.02 25.14, 1.15 18.8, 3.14 14.28 C5.13 9.76, 8.98 5.18, 13.31 2.78 C17.65 0.37, 26.36 0.3, 29.14 -0.13 C31.91 -0.56, 30.13 -0.4, 29.96 0.2" stroke="none" stroke-width="0" fill="#ced4da"></path><path d="M16.45 0.75 C20.82 -0.92, 27.9 0.1, 32.65 2.14 C37.41 4.19, 42.48 8.56, 44.96 13.01 C47.44 17.46, 48.74 23.8, 47.53 28.83 C46.32 33.87, 41.66 39.91, 37.69 43.23 C33.73 46.55, 28.8 48.94, 23.74 48.75 C18.68 48.57, 11.39 45.82, 7.34 42.14 C3.29 38.46, 0.13 31.84, -0.54 26.67 C-1.21 21.5, 0.27 15.35, 3.32 11.11 C6.38 6.86, 14.86 3.02, 17.77 1.19 C20.69 -0.65, 20.73 -0.22, 20.82 0.09 M16.67 -0.1 C21.16 -1.49, 29.38 0.43, 34.13 2.84 C38.88 5.26, 42.96 9.82, 45.17 14.4 C47.37 18.97, 48.6 25.49, 47.34 30.29 C46.08 35.08, 41.82 40.19, 37.59 43.14 C33.37 46.09, 27.15 48.06, 21.99 47.99 C16.83 47.91, 10.2 46.04, 6.62 42.69 C3.04 39.33, 0.74 32.99, 0.51 27.88 C0.27 22.77, 2.54 16.48, 5.19 12.01 C7.84 7.55, 14.49 2.9, 16.4 1.07 C18.32 -0.76, 16.66 0.54, 16.67 1.04" stroke="#ced4da" stroke-width="1" fill="none"></path></g><g stroke-linecap="round" transform="translate(350.680306990354 368.5193909852787) rotate(0 32.777545828743655 29.917759951068092)"><path d="M37.75 0.88 C44.51 1.29, 52.74 4.49, 57.38 9.22 C62.02 13.95, 65.51 22.61, 65.61 29.27 C65.71 35.93, 62.25 44.28, 57.98 49.16 C53.71 54.04, 46.85 57.21, 39.98 58.54 C33.1 59.87, 22.87 60.17, 16.71 57.15 C10.54 54.12, 5.5 46.41, 2.99 40.4 C0.48 34.4, -0.27 26.96, 1.65 21.12 C3.58 15.29, 7.21 8.5, 14.55 5.4 C21.89 2.3, 39.26 2.23, 45.68 2.51 C52.1 2.8, 53.26 6.6, 53.09 7.11 M27.47 1.65 C34.29 0.3, 44.44 1.29, 50.43 4.55 C56.43 7.81, 61.44 15.32, 63.44 21.2 C65.44 27.08, 64.8 33.88, 62.44 39.83 C60.09 45.78, 55.62 53.63, 49.3 56.9 C42.99 60.16, 31.85 60.64, 24.56 59.43 C17.27 58.22, 9.73 54.64, 5.54 49.64 C1.35 44.63, -1.07 35.98, -0.58 29.4 C-0.09 22.82, 3.8 14.81, 8.5 10.16 C13.2 5.51, 24.44 3.1, 27.62 1.53 C30.79 -0.05, 27.28 0.58, 27.57 0.72" stroke="none" stroke-width="0" fill="#ced4da"></path><path d="M46.32 3.06 C52.7 5.34, 59.95 11.88, 63.04 17.76 C66.13 23.63, 66.78 32.34, 64.86 38.33 C62.93 44.31, 57.26 50.01, 51.48 53.68 C45.71 57.34, 37.08 60.88, 30.21 60.31 C23.34 59.74, 15.25 55.07, 10.27 50.27 C5.28 45.48, 1.16 37.85, 0.31 31.54 C-0.53 25.23, 1.22 17.56, 5.2 12.43 C9.17 7.3, 16.82 2.04, 24.15 0.76 C31.48 -0.53, 44.96 4.01, 49.18 4.72 C53.4 5.43, 49.81 4.84, 49.47 5.02 M45.82 3.99 C52.34 6.35, 60.26 12.06, 63.56 17.8 C66.85 23.53, 67.51 32.36, 65.61 38.43 C63.71 44.49, 58.16 50.72, 52.15 54.19 C46.14 57.65, 36.67 59.92, 29.54 59.21 C22.42 58.5, 14.12 54.37, 9.41 49.93 C4.7 45.48, 1.67 38.55, 1.29 32.53 C0.92 26.51, 3.08 19.16, 7.16 13.82 C11.24 8.48, 19.14 2.35, 25.78 0.49 C32.42 -1.38, 43.59 2.3, 46.99 2.62 C50.4 2.94, 46.34 1.76, 46.22 2.4" stroke="#ced4da" stroke-width="1" fill="none"></path></g><g transform="translate(338.29195490961956 392.52625239412504) rotate(0 64.4532470703125 12)"><text x="64.4532470703125" y="0" font-family="Virgil, Segoe UI Emoji" font-size="20.529302206709755px" fill="#000000" text-anchor="middle" style="white-space: pre;" direction="ltr" dominant-baseline="text-before-edge">Micro service</text></g><g stroke-linecap="round" transform="translate(653.9896877767126 391.0299937415661) rotate(0 59.58608169516242 21.26076154381377)"><path d="M12.2 -1.56 L114.06 2.1 L116.58 4.43 L118.08 36.13 L116.19 41.35 L107.73 44.3 L7.91 41.38 L2.02 38.17 L1.07 9.95 L4.08 1.2 L10.69 0.43" stroke="none" stroke-width="0" fill="#ced4da"></path><path d="M10.63 0 M10.63 0 C33.72 2, 52.56 -0.25, 108.54 0 M10.63 0 C43.48 1.15, 75.77 0.39, 108.54 0 M108.54 0 C116.67 0.14, 119.33 2.39, 119.17 10.63 M108.54 0 C114.41 0.32, 117.32 5.08, 119.17 10.63 M119.17 10.63 C117.69 17.51, 117.56 23.02, 119.17 31.89 M119.17 10.63 C118.34 17.11, 119.89 23.13, 119.17 31.89 M119.17 31.89 C117.39 39.23, 113.87 43.93, 108.54 42.52 M119.17 31.89 C117.24 39.93, 114.37 42.69, 108.54 42.52 M108.54 42.52 C85.38 41, 63.95 41.1, 10.63 42.52 M108.54 42.52 C82.08 42.53, 54.13 42.24, 10.63 42.52 M10.63 42.52 C2.78 44.08, -1.8 40.96, 0 31.89 M10.63 42.52 C5.47 41.22, -0.45 40.71, 0 31.89 M0 31.89 C0 26.3, -1.63 17.49, 0 10.63 M0 31.89 C-0.4 27.23, -0.67 21.73, 0 10.63 M0 10.63 C-1.83 3.42, 1.76 1.19, 10.63 0 M0 10.63 C-0.01 1.39, 2.37 0.66, 10.63 0" stroke="#000000" stroke-width="1" fill="none"></path></g><g stroke-linecap="round" transform="translate(686.9998175421047 342.913533405569) rotate(0 40.283548188278814 38.884813876185774)"><path d="M36.23 -0.05 C43.19 -1.31, 52.6 0.88, 59.26 4.21 C65.93 7.53, 72.62 13.78, 76.22 19.9 C79.82 26.02, 81.47 33.84, 80.86 40.93 C80.25 48.02, 77.02 56.56, 72.56 62.42 C68.1 68.28, 60.67 73.73, 54.11 76.07 C47.56 78.41, 40.24 77.86, 33.24 76.45 C26.24 75.04, 17.43 72.45, 12.1 67.61 C6.77 62.77, 2.78 54.39, 1.25 47.43 C-0.28 40.48, 0.44 32.58, 2.92 25.89 C5.41 19.21, 10.25 11.75, 16.17 7.31 C22.09 2.87, 34.4 0.48, 38.44 -0.74 C42.48 -1.96, 40.4 -0.81, 40.41 -0.02 M24.48 1.75 C30.92 -1.13, 41.08 -0.73, 48.01 0.56 C54.95 1.84, 60.82 4.81, 66.09 9.45 C71.37 14.1, 77.67 21.76, 79.67 28.43 C81.67 35.11, 80.6 42.66, 78.08 49.5 C75.57 56.34, 69.92 64.78, 64.59 69.45 C59.25 74.12, 52.98 76.74, 46.09 77.52 C39.19 78.29, 30.05 77.01, 23.19 74.1 C16.33 71.19, 8.66 66.03, 4.94 60.06 C1.22 54.09, 0.67 45.69, 0.87 38.27 C1.07 30.84, 2.08 21.51, 6.16 15.52 C10.24 9.54, 22.1 4.51, 25.36 2.35 C28.62 0.19, 25.43 1.94, 25.71 2.55" stroke="none" stroke-width="0" fill="#ced4da"></path><path d="M24.9 3.62 C31.04 0.79, 39.91 0.43, 47.23 1.54 C54.56 2.66, 63.38 5.53, 68.85 10.32 C74.32 15.11, 78.36 23.5, 80.04 30.28 C81.73 37.06, 81.3 44.64, 78.97 51.02 C76.65 57.4, 71.87 64.1, 66.11 68.56 C60.35 73.02, 51.88 76.97, 44.41 77.78 C36.94 78.59, 27.9 76.53, 21.3 73.42 C14.71 70.31, 8.27 65.32, 4.83 59.14 C1.39 52.96, 0.35 43.38, 0.69 36.34 C1.02 29.29, 2.71 22.65, 6.85 16.87 C10.98 11.08, 21.96 3.93, 25.49 1.63 C29.03 -0.66, 27.7 2.44, 28.07 3.12 M49.74 0.5 C56.57 1.46, 65.02 6.19, 70.23 11.45 C75.43 16.7, 79.88 25.14, 80.99 32.02 C82.11 38.89, 80.07 46.09, 76.89 52.71 C73.7 59.33, 68 67.5, 61.89 71.74 C55.77 75.98, 47.24 78.12, 40.19 78.16 C33.14 78.2, 25.68 75.87, 19.58 71.97 C13.48 68.07, 6.83 60.83, 3.58 54.75 C0.32 48.67, -0.69 42.47, 0.06 35.49 C0.8 28.51, 3.36 18.69, 8.03 12.87 C12.71 7.05, 20.83 2.7, 28.1 0.56 C35.38 -1.58, 47.84 -0.07, 51.66 0.04 C55.49 0.15, 51.35 0.56, 51.02 1.23" stroke="#000000" stroke-width="1" fill="none"></path></g><g stroke-linecap="round" transform="translate(634.4074074074074 378.1616380703135) rotate(0 27.974686241860354 27.135445654604496)"><path d="M16.64 1.69 C21.48 -0.87, 29.05 -1.05, 34.77 0.57 C40.5 2.19, 47.38 6.59, 50.97 11.41 C54.56 16.22, 56.94 23.54, 56.31 29.46 C55.69 35.38, 51.66 42.64, 47.23 46.92 C42.8 51.2, 35.63 54.7, 29.73 55.12 C23.82 55.55, 16.62 53.09, 11.8 49.46 C6.97 45.83, 2.15 39.2, 0.78 33.35 C-0.58 27.5, 0.21 19.6, 3.59 14.37 C6.98 9.13, 17.81 4.22, 21.1 1.93 C24.39 -0.35, 23.22 0.32, 23.31 0.65 M23.62 -0.8 C28.88 -2.36, 36.04 -0.54, 40.97 2.31 C45.89 5.17, 51.08 10.66, 53.18 16.31 C55.28 21.96, 55.6 30.69, 53.59 36.22 C51.57 41.75, 46.33 46.55, 41.08 49.48 C35.83 52.42, 28.05 54.45, 22.11 53.83 C16.17 53.2, 9.14 50.37, 5.45 45.75 C1.77 41.12, -0.02 31.98, 0 26.09 C0.01 20.2, 1.84 14.76, 5.54 10.4 C9.25 6.05, 19.56 1.73, 22.21 -0.04 C24.87 -1.81, 21.23 -0.94, 21.48 -0.21" stroke="none" stroke-width="0" fill="#ced4da"></path><path d="M25.71 -0.25 C31.51 -1, 39.62 2.14, 44.44 5.56 C49.25 8.97, 52.94 14.74, 54.6 20.25 C56.26 25.76, 56.82 33.31, 54.38 38.63 C51.94 43.96, 45.61 49.72, 39.97 52.2 C34.34 54.68, 26.29 55.15, 20.56 53.52 C14.83 51.88, 9.05 47.21, 5.61 42.39 C2.17 37.57, -0.54 30.19, -0.08 24.62 C0.38 19.06, 4.14 13.17, 8.38 9 C12.61 4.82, 22.06 1.12, 25.32 -0.42 C28.58 -1.96, 27.87 -0.82, 27.93 -0.24 M33.97 0.58 C39.65 1.23, 46.23 4.59, 49.76 9.1 C53.29 13.62, 55.45 21.58, 55.15 27.7 C54.85 33.83, 51.79 41.56, 47.96 45.85 C44.12 50.15, 38.09 52.86, 32.15 53.45 C26.2 54.04, 17.26 52.48, 12.28 49.39 C7.3 46.3, 3.95 40.2, 2.28 34.92 C0.6 29.64, 0.24 23.02, 2.22 17.69 C4.2 12.36, 9.18 5.84, 14.14 2.94 C19.1 0.03, 28.64 0.77, 31.98 0.26 C35.33 -0.25, 34.32 -0.62, 34.21 -0.11" stroke="#000000" stroke-width="1" fill="none"></path></g><g stroke-linecap="round" transform="translate(664.6200685486119 356.3413828016623) rotate(0 19.2035461555663 17.262533310169488)"><path d="M22.5 -0.51 C26.39 -0.04, 31.29 3.29, 33.85 6.44 C36.41 9.58, 38.01 14.66, 37.87 18.35 C37.73 22.05, 35.62 25.96, 33.01 28.59 C30.4 31.22, 26.03 33.53, 22.19 34.12 C18.35 34.72, 13.45 34.08, 9.97 32.15 C6.49 30.23, 2.8 25.99, 1.3 22.57 C-0.19 19.14, -0.32 14.85, 1 11.6 C2.33 8.34, 5.25 4.95, 9.26 3.03 C13.27 1.1, 22.46 0.22, 25.08 0.04 C27.7 -0.13, 25.18 1.67, 24.98 1.98 M23.78 0.15 C27.4 0.71, 32.1 4, 34.3 7.1 C36.51 10.21, 37.36 15.17, 37.02 18.8 C36.68 22.42, 35.26 26.45, 32.25 28.84 C29.25 31.23, 23.13 33.02, 18.98 33.14 C14.83 33.26, 10.29 31.61, 7.35 29.57 C4.41 27.54, 2.42 24.43, 1.33 20.91 C0.24 17.39, -1.03 11.82, 0.81 8.45 C2.65 5.09, 8.41 2.25, 12.37 0.74 C16.33 -0.76, 22.65 -0.7, 24.54 -0.55 C26.44 -0.4, 23.54 1.13, 23.73 1.64" stroke="none" stroke-width="0" fill="#ced4da"></path><path d="M16.8 0.98 C20.85 0.23, 27.33 0.66, 30.92 2.72 C34.51 4.78, 37.28 9.79, 38.34 13.33 C39.4 16.87, 38.95 20.83, 37.27 23.96 C35.6 27.08, 32.1 30.34, 28.32 32.06 C24.54 33.77, 18.81 35.02, 14.57 34.22 C10.34 33.42, 5.44 30.19, 2.9 27.25 C0.36 24.32, -1.18 20.46, -0.66 16.63 C-0.13 12.81, 2.88 7.02, 6.05 4.31 C9.22 1.59, 16.11 1.11, 18.38 0.33 C20.64 -0.46, 19.53 -0.7, 19.66 -0.41 M19.57 0.12 C23.43 -0.32, 27.75 1.2, 30.88 3.39 C34.01 5.59, 37.39 9.56, 38.36 13.29 C39.34 17.02, 38.92 22.63, 36.71 25.78 C34.49 28.92, 29.29 30.79, 25.06 32.18 C20.83 33.57, 15.29 35.13, 11.33 34.12 C7.37 33.1, 3.09 29.47, 1.29 26.09 C-0.52 22.72, -0.37 17.77, 0.51 13.87 C1.39 9.96, 3.42 4.8, 6.54 2.68 C9.66 0.55, 17.28 1.73, 19.25 1.12 C21.21 0.51, 18.28 -0.87, 18.34 -0.99" stroke="#000000" stroke-width="1" fill="none"></path></g><g stroke-linecap="round" transform="translate(740.7112151264796 388.7920188422199) rotate(0 23.77848330558129 22.379748993488192)"><path d="M16.45 0.37 C20.98 -1.12, 28.5 -0.52, 33.37 1.45 C38.25 3.41, 43.5 7.72, 45.71 12.18 C47.92 16.64, 48 23.3, 46.62 28.18 C45.24 33.06, 41.5 38.66, 37.44 41.47 C33.37 44.28, 27.3 45.63, 22.25 45.05 C17.2 44.48, 10.69 41.58, 7.13 38.02 C3.57 34.47, 1.23 28.28, 0.9 23.71 C0.56 19.15, 2.01 14.56, 5.12 10.62 C8.23 6.68, 16.46 1.73, 19.57 0.07 C22.68 -1.6, 23.68 0.13, 23.77 0.63 M22.65 -1.14 C27.18 -1.5, 33.82 0.53, 37.76 3.76 C41.7 6.98, 45.37 13.47, 46.31 18.22 C47.25 22.96, 45.95 28.07, 43.39 32.23 C40.83 36.39, 35.74 41.13, 30.96 43.17 C26.19 45.2, 19.33 46.22, 14.74 44.45 C10.15 42.67, 5.95 36.71, 3.41 32.53 C0.87 28.35, -1.18 23.94, -0.48 19.35 C0.22 14.76, 3.87 8.42, 7.61 4.99 C11.35 1.56, 19.25 -0.66, 21.95 -1.22 C24.65 -1.78, 23.58 0.94, 23.82 1.63" stroke="none" stroke-width="0" fill="#ced4da"></path><path d="M22.75 1.04 C27.39 0.57, 33.16 2.1, 37.3 4.81 C41.45 7.51, 46.33 12.62, 47.6 17.26 C48.87 21.91, 47.36 28.43, 44.92 32.68 C42.48 36.93, 37.5 41, 32.96 42.75 C28.42 44.51, 22.5 44.59, 17.69 43.2 C12.87 41.8, 6.9 38.1, 4.07 34.39 C1.23 30.68, 0.35 25.67, 0.69 20.94 C1.03 16.2, 2.1 9.6, 6.12 5.98 C10.13 2.36, 21.43 0.06, 24.77 -0.78 C28.12 -1.62, 26.18 0.44, 26.17 0.95 M19.39 -0.46 C23.82 -1.59, 30.3 0.38, 34.53 3.02 C38.77 5.67, 42.88 11.02, 44.78 15.39 C46.68 19.75, 47.63 25.03, 45.93 29.22 C44.24 33.41, 38.81 38.16, 34.61 40.51 C30.41 42.86, 25.48 43.87, 20.74 43.32 C16.01 42.77, 9.7 40.73, 6.22 37.21 C2.73 33.7, 0.19 27.08, -0.16 22.22 C-0.52 17.37, 0.68 11.88, 4.1 8.06 C7.53 4.24, 18.07 0.46, 20.39 -0.71 C22.71 -1.88, 18.36 0.3, 18.03 1.03" stroke="#000000" stroke-width="1" fill="none"></path></g><g stroke-linecap="round" transform="translate(641.521591724294 385.03830390271054) rotate(0 24.63815525382074 23.97820466666485)"><path d="M25.09 -0.16 C30.14 -0.05, 36.73 3.27, 40.64 6.71 C44.55 10.16, 47.7 15.53, 48.56 20.5 C49.42 25.47, 48.36 32.08, 45.79 36.51 C43.21 40.93, 38.13 45.44, 33.11 47.04 C28.1 48.64, 20.81 47.98, 15.7 46.13 C10.6 44.28, 5.15 40.33, 2.47 35.96 C-0.2 31.59, -1.66 25.17, -0.35 19.92 C0.96 14.68, 5.7 7.64, 10.36 4.48 C15.02 1.32, 24.33 1.59, 27.62 0.96 C30.92 0.32, 30.03 0.41, 30.11 0.68 M30.55 0.05 C35.46 1.14, 40.89 5.74, 44.01 9.99 C47.13 14.24, 49.82 20.54, 49.25 25.55 C48.68 30.56, 44.46 36.54, 40.58 40.04 C36.71 43.55, 30.95 46.05, 25.99 46.58 C21.03 47.11, 15.28 46.18, 10.83 43.21 C6.37 40.24, 0.56 33.84, -0.74 28.75 C-2.04 23.67, 0.53 17.38, 3.05 12.69 C5.56 7.99, 9.78 2.46, 14.35 0.59 C18.92 -1.27, 27.41 1.34, 30.47 1.49 C33.54 1.64, 32.54 1.12, 32.73 1.47" stroke="none" stroke-width="0" fill="#ced4da"></path><path d="M34.52 1.39 C39.49 2.86, 44.44 8.76, 46.91 13.25 C49.38 17.74, 50.36 23.52, 49.34 28.31 C48.32 33.09, 44.98 38.63, 40.78 41.94 C36.58 45.25, 29.66 48.18, 24.14 48.17 C18.62 48.15, 11.73 45.19, 7.64 41.87 C3.55 38.54, 0.15 33.43, -0.42 28.22 C-0.99 23.01, 1.45 15.03, 4.22 10.59 C7 6.15, 11.06 3.04, 16.24 1.6 C21.42 0.16, 31.6 1.41, 35.31 1.96 C39.03 2.52, 38.58 4.51, 38.52 4.93 M30.09 0 C35.03 0.74, 41.64 4.69, 44.99 8.97 C48.34 13.25, 50.75 20.6, 50.19 25.69 C49.63 30.78, 45.7 35.69, 41.64 39.5 C37.57 43.32, 31.16 47.81, 25.79 48.57 C20.41 49.33, 13.53 47.14, 9.4 44.06 C5.27 40.98, 2.3 35.31, 1.03 30.08 C-0.25 24.85, -0.39 17.14, 1.76 12.69 C3.92 8.24, 9.27 5.59, 13.95 3.39 C18.63 1.19, 26.99 0.04, 29.83 -0.53 C32.68 -1.11, 30.76 -0.45, 31.01 -0.06" stroke="#ced4da" stroke-width="1" fill="none"></path></g><g stroke-linecap="round" transform="translate(707.9566174979891 366.55968746234515) rotate(0 29.69777642201609 31.89761171253582)"><path d="M19.75 1.24 C25.57 -1.28, 34.81 -0.97, 40.76 1.6 C46.7 4.16, 52.44 10.42, 55.42 16.62 C58.4 22.82, 59.76 32.07, 58.64 38.79 C57.52 45.52, 53.61 52.87, 48.71 56.97 C43.81 61.07, 35.5 63.71, 29.23 63.41 C22.96 63.1, 15.71 59.41, 11.07 55.14 C6.43 50.88, 2.62 44.47, 1.38 37.84 C0.13 31.21, -0.15 21.52, 3.62 15.37 C7.4 9.22, 20.22 3.26, 24.01 0.93 C27.8 -1.39, 26.38 0.83, 26.36 1.42 M16.45 1.65 C21.78 -1.19, 30.77 -0.56, 36.86 1.31 C42.94 3.18, 49.48 7.28, 52.98 12.88 C56.49 18.48, 58.52 27.77, 57.89 34.89 C57.25 42, 53.48 50.99, 49.16 55.56 C44.85 60.13, 38.25 61.84, 32 62.29 C25.75 62.75, 16.93 62.11, 11.67 58.28 C6.4 54.46, 2.09 46.23, 0.4 39.34 C-1.29 32.45, -1.38 22.8, 1.53 16.92 C4.45 11.04, 15.2 6.18, 17.89 4.04 C20.58 1.9, 17.48 3.95, 17.66 4.09" stroke="none" stroke-width="0" fill="#ced4da"></path><path d="M23.45 1.34 C29.28 -0.45, 39.02 1.1, 44.6 4.35 C50.19 7.6, 54.86 14.56, 56.96 20.83 C59.05 27.09, 59.07 35.71, 57.16 41.96 C55.25 48.2, 50.83 54.82, 45.51 58.28 C40.19 61.75, 31.49 63.51, 25.25 62.76 C19.02 62, 12.47 58.83, 8.1 53.76 C3.74 48.69, -0.71 39.44, -0.94 32.36 C-1.17 25.29, 1.76 16.67, 6.72 11.33 C11.69 5.98, 24.01 1.97, 28.87 0.3 C33.73 -1.37, 35.82 0.73, 35.89 1.3 M29.96 0.23 C35.79 0.36, 43.58 4.75, 48.38 9.21 C53.19 13.68, 57.94 20.59, 58.79 27.02 C59.64 33.44, 56.69 42.08, 53.48 47.76 C50.28 53.44, 45.32 58.77, 39.56 61.08 C33.81 63.4, 25 64.09, 18.95 61.63 C12.91 59.18, 6.55 52.43, 3.3 46.33 C0.04 40.23, -2.1 31.81, -0.56 25.02 C0.98 18.24, 7.55 9.76, 12.55 5.63 C17.55 1.49, 26.61 0.86, 29.42 0.21 C32.24 -0.44, 29.42 1.11, 29.42 1.72" stroke="#ced4da" stroke-width="1" fill="none"></path></g><g stroke-linecap="round" transform="translate(728.6350692288697 388.9980074256436) rotate(0 28.37787524770431 21.778369376145122)"><path d="M15.75 2.59 C20.82 0.45, 29.11 -0.55, 35.13 0.52 C41.15 1.58, 48.11 5.1, 51.85 8.98 C55.59 12.87, 58.07 19.15, 57.58 23.83 C57.08 28.51, 53.38 33.66, 48.88 37.06 C44.38 40.46, 36.85 43.64, 30.58 44.24 C24.32 44.84, 16.08 43.55, 11.29 40.66 C6.5 37.78, 3.31 31.48, 1.83 26.93 C0.36 22.39, -0.33 17.71, 2.42 13.41 C5.16 9.1, 15.24 3.11, 18.3 1.1 C21.37 -0.92, 20.57 1.08, 20.81 1.34 M20.87 -0.26 C26.64 -1.55, 36.03 -0.83, 41.48 1.2 C46.93 3.24, 51.24 7.68, 53.56 11.96 C55.88 16.24, 56.88 22.19, 55.4 26.88 C53.91 31.56, 49.98 37.45, 44.65 40.07 C39.32 42.7, 29.54 43.29, 23.43 42.62 C17.32 41.95, 11.98 39.57, 8 36.04 C4.01 32.52, 0.09 25.97, -0.49 21.48 C-1.06 16.99, 0.59 12.59, 4.55 9.1 C8.5 5.61, 20.2 1.85, 23.26 0.55 C26.31 -0.76, 23.09 0.74, 22.86 1.28" stroke="none" stroke-width="0" fill="#ced4da"></path><path d="M41.24 2.92 C46.54 4.56, 52.18 8.39, 54.72 12.38 C57.25 16.37, 58.15 22.25, 56.45 26.84 C54.74 31.43, 49.77 37.18, 44.51 39.92 C39.26 42.67, 31.11 43.69, 24.93 43.31 C18.76 42.94, 11.49 41.11, 7.46 37.65 C3.43 34.19, 1.19 27.25, 0.74 22.56 C0.3 17.86, 1.5 13.26, 4.79 9.48 C8.07 5.71, 13.94 0.87, 20.45 -0.09 C26.96 -1.05, 39.59 2.92, 43.84 3.74 C48.09 4.57, 46.19 4.59, 45.97 4.85 M29.68 -1.19 C35.78 -1.22, 44.06 2.22, 48.45 5.33 C52.84 8.43, 55.55 12.65, 56.02 17.44 C56.5 22.24, 54.68 29.85, 51.32 34.1 C47.97 38.35, 41.47 41.64, 35.89 42.92 C30.3 44.2, 23.34 43.81, 17.82 41.77 C12.3 39.74, 5.65 34.63, 2.75 30.72 C-0.15 26.8, -0.76 22.87, 0.43 18.29 C1.61 13.71, 5 6.5, 9.87 3.23 C14.74 -0.03, 26.22 -0.63, 29.66 -1.3 C33.1 -1.98, 30.46 -1.25, 30.51 -0.81" stroke="#ced4da" stroke-width="1" fill="none"></path></g><g stroke-linecap="round" transform="translate(678.9187916631238 358.2003133583684) rotate(0 23.75822113761285 23.97820466666485)"><path d="M18.76 0.17 C23.39 -1.12, 29.76 0.29, 34.18 2.82 C38.61 5.36, 43.23 10.64, 45.33 15.37 C47.42 20.09, 48.19 26.47, 46.77 31.18 C45.34 35.88, 40.95 40.99, 36.79 43.61 C32.63 46.23, 26.7 47.28, 21.81 46.9 C16.93 46.51, 11.22 44.91, 7.5 41.3 C3.77 37.68, -0.18 30.45, -0.52 25.21 C-0.87 19.98, 2.2 13.89, 5.43 9.86 C8.67 5.84, 16.4 2.48, 18.87 1.06 C21.35 -0.37, 20.3 1.1, 20.29 1.32 M14.12 1.86 C18.45 -0.2, 25.22 -1.34, 29.96 0.22 C34.7 1.79, 39.91 6.56, 42.57 11.24 C45.23 15.91, 46.44 23.41, 45.94 28.27 C45.45 33.14, 43.3 37.09, 39.6 40.44 C35.9 43.79, 28.93 48.06, 23.76 48.38 C18.58 48.69, 12.65 45.76, 8.54 42.31 C4.44 38.86, 0.01 32.42, -0.87 27.68 C-1.74 22.93, 0.66 18.06, 3.3 13.84 C5.93 9.62, 12.91 4.46, 14.92 2.37 C16.94 0.28, 15.08 0.9, 15.4 1.3" stroke="none" stroke-width="0" fill="#ced4da"></path><path d="M35.59 3.27 C39.99 5.26, 43.71 10.89, 45.39 15.56 C47.07 20.23, 47.12 26.62, 45.67 31.27 C44.23 35.92, 40.9 40.84, 36.7 43.47 C32.5 46.1, 25.45 47.49, 20.46 47.04 C15.48 46.6, 10.36 44.55, 6.79 40.79 C3.23 37.04, -0.68 29.88, -0.94 24.51 C-1.19 19.13, 2.13 12.49, 5.26 8.55 C8.4 4.61, 12.26 1.4, 17.87 0.86 C23.49 0.31, 35.09 3.87, 38.97 5.27 C42.84 6.68, 41.42 8.96, 41.12 9.28 M15.8 1.99 C20.43 0.2, 28.27 -0.19, 32.9 1.52 C37.54 3.22, 41.18 7.72, 43.63 12.21 C46.07 16.69, 48.46 23.21, 47.57 28.41 C46.69 33.61, 42.54 40.25, 38.3 43.42 C34.06 46.58, 27.5 47.77, 22.15 47.39 C16.8 47.02, 9.68 44.8, 6.2 41.16 C2.72 37.53, 1.87 30.62, 1.27 25.58 C0.67 20.55, 0.21 14.86, 2.61 10.94 C5.01 7.02, 13.47 3.53, 15.68 2.05 C17.89 0.57, 15.68 1.85, 15.88 2.07" stroke="#ced4da" stroke-width="1" fill="none"></path></g><g stroke-linecap="round" transform="translate(658.680306990354 370.5193909852787) rotate(0 32.777545828743655 29.917759951068092)"><path d="M29.39 -0.09 C36.13 -1.13, 45.83 1.41, 51.83 5.15 C57.82 8.9, 63.51 16.15, 65.35 22.37 C67.19 28.59, 66.04 36.56, 62.86 42.47 C59.68 48.37, 52.86 54.9, 46.29 57.79 C39.72 60.68, 30.02 61.69, 23.44 59.82 C16.86 57.95, 10.71 51.84, 6.79 46.55 C2.87 41.26, -0.57 34.46, -0.08 28.11 C0.42 21.75, 4.29 13.11, 9.74 8.42 C15.2 3.73, 28.49 1.41, 32.65 -0.03 C36.82 -1.47, 34.92 -0.61, 34.75 -0.23 M22.69 0.29 C28.94 -2.07, 37.51 -1.59, 43.99 0.77 C50.47 3.13, 57.95 8.58, 61.58 14.45 C65.2 20.33, 67.41 29.67, 65.75 36.04 C64.1 42.41, 57.23 48.8, 51.63 52.67 C46.04 56.54, 39.04 59.59, 32.17 59.28 C25.3 58.98, 15.91 54.95, 10.4 50.84 C4.89 46.74, -0.17 40.78, -0.89 34.66 C-1.6 28.55, 2.09 19.63, 6.1 14.15 C10.12 8.67, 20.57 3.64, 23.2 1.8 C25.83 -0.03, 21.69 2.63, 21.89 3.13" stroke="none" stroke-width="0" fill="#ced4da"></path><path d="M29.37 -0.12 C35.95 -1.49, 45.59 0.53, 51.39 4.13 C57.19 7.72, 62.37 15.2, 64.17 21.43 C65.97 27.66, 65.04 35.55, 62.17 41.51 C59.29 47.47, 52.93 54.42, 46.9 57.18 C40.88 59.95, 32.8 59.6, 26 58.1 C19.2 56.6, 10.56 53.31, 6.1 48.21 C1.64 43.11, -1.25 33.9, -0.74 27.51 C-0.23 21.12, 2.41 14.39, 9.14 9.85 C15.88 5.31, 32.89 1.11, 39.68 0.28 C46.47 -0.54, 50.01 4.44, 49.9 4.89 M25.16 0.73 C31.38 -1.27, 40 -1.49, 46.04 1.36 C52.07 4.22, 58.48 11.78, 61.36 17.87 C64.24 23.97, 64.9 31.89, 63.31 37.94 C61.73 44, 57.49 50.76, 51.86 54.19 C46.23 57.61, 36.6 58.84, 29.54 58.52 C22.48 58.2, 14.57 56.81, 9.48 52.28 C4.4 47.75, -0.41 38.11, -0.98 31.32 C-1.56 24.53, 1.67 16.8, 6.04 11.54 C10.4 6.29, 22.06 1.58, 25.22 -0.21 C28.37 -2, 24.97 0.28, 24.96 0.81" stroke="#ced4da" stroke-width="1" fill="none"></path></g><g transform="translate(646.2919549096196 394.52625239412504) rotate(0 64.4532470703125 12)"><text x="64.4532470703125" y="0" font-family="Virgil, Segoe UI Emoji" font-size="20.529302206709755px" fill="#000000" text-anchor="middle" style="white-space: pre;" direction="ltr" dominant-baseline="text-before-edge">Micro service</text></g><g transform="translate(220.33779457252467 57.232525117382636) rotate(0 122.67990112304688 12)"><text x="0" y="0" font-family="Virgil, Segoe UI Emoji" font-size="20px" fill="#000000" text-anchor="start" style="white-space: pre;" direction="ltr" dominant-baseline="text-before-edge">ListMutex:EXIST:balance</text></g><g stroke-linecap="round" transform="translate(533.5877945725244 38.45202384459077) rotate(0 14.265869876565603 35.85745671677293)"><path d="M10.43 1.96 C12.98 -0.15, 17.24 1.46, 19.9 4.67 C22.56 7.87, 25.12 14.24, 26.4 21.18 C27.69 28.12, 28.34 38.85, 27.62 46.33 C26.9 53.8, 24.58 61.77, 22.1 66.01 C19.61 70.25, 15.78 72.55, 12.69 71.78 C9.61 71.01, 5.79 67.14, 3.58 61.38 C1.37 55.61, -0.28 45.07, -0.57 37.21 C-0.86 29.34, -0.56 20.53, 1.82 14.19 C4.21 7.84, 11.62 1.3, 13.73 -0.85 C15.83 -3, 14.58 0.69, 14.44 1.3 M8.7 2.44 C11.49 -1.06, 15.83 -0.53, 18.88 1.62 C21.92 3.77, 25.51 9, 26.99 15.36 C28.46 21.71, 28.15 32, 27.71 39.73 C27.27 47.46, 26.52 56.29, 24.36 61.71 C22.2 67.13, 17.61 71.61, 14.75 72.25 C11.9 72.9, 9.52 69.89, 7.2 65.59 C4.89 61.29, 1.98 54.03, 0.87 46.47 C-0.24 38.92, -0.44 27.6, 0.54 20.27 C1.51 12.93, 5.47 5.04, 6.72 2.46 C7.97 -0.13, 7.85 4.02, 8.04 4.76" stroke="none" stroke-width="0" fill="#ffffff"></path><path d="M11.22 1.63 C14.16 -0.51, 18.83 -0.35, 21.69 3.28 C24.55 6.9, 27.22 16.02, 28.37 23.38 C29.52 30.73, 29.53 40.3, 28.59 47.4 C27.64 54.5, 25.56 61.96, 22.72 65.98 C19.88 70, 14.8 72.41, 11.55 71.51 C8.29 70.61, 5.06 66.46, 3.2 60.59 C1.33 54.73, 0.45 44.08, 0.35 36.32 C0.26 28.55, 0.33 19.95, 2.63 14 C4.94 8.04, 11.69 2.75, 14.2 0.6 C16.7 -1.56, 17.56 0.63, 17.64 1.06 M13.03 -0.55 C16.12 -1.69, 21.19 2.09, 23.65 6.59 C26.12 11.09, 27.38 19.03, 27.81 26.45 C28.25 33.87, 27.63 43.96, 26.28 51.1 C24.93 58.23, 22.63 66.01, 19.73 69.28 C16.83 72.55, 11.54 72.9, 8.89 70.74 C6.23 68.59, 5.11 62.9, 3.8 56.35 C2.49 49.8, 0.88 39.32, 1.05 31.44 C1.22 23.55, 3.04 14.17, 4.82 9.03 C6.61 3.89, 10.34 2.16, 11.75 0.59 C13.17 -0.97, 13.24 -0.75, 13.3 -0.36" stroke="#000000" stroke-width="1" fill="none"></path></g><g stroke-linecap="round" transform="translate(773.6864987143249 38.45202384459077) rotate(0 14.265869876565603 35.85745671677293)"><path d="M19.99 1.35 C22.84 3.28, 26.15 10.05, 27.48 16.73 C28.82 23.42, 28.61 33.73, 28 41.46 C27.4 49.18, 26.09 58.03, 23.86 63.07 C21.64 68.12, 17.73 71.72, 14.67 71.74 C11.6 71.75, 7.75 68.15, 5.48 63.16 C3.2 58.17, 1.79 49.44, 1.03 41.78 C0.28 34.12, -0.35 23.69, 0.96 17.23 C2.27 10.76, 5.83 5.41, 8.89 2.99 C11.94 0.56, 17.13 2.29, 19.29 2.68 C21.45 3.06, 21.93 4.78, 21.85 5.28 M11 1.47 C13.89 -0.03, 19.25 2.58, 22.1 6.24 C24.94 9.9, 26.98 16.36, 28.07 23.43 C29.16 30.5, 29.66 41.49, 28.63 48.65 C27.6 55.8, 24.62 62.45, 21.89 66.36 C19.16 70.26, 15.33 73.34, 12.24 72.07 C9.15 70.81, 5.23 65.03, 3.36 58.76 C1.5 52.49, 1.14 42.44, 1.05 34.46 C0.96 26.49, 1.13 16.61, 2.8 10.91 C4.46 5.2, 9.36 2, 11.01 0.22 C12.67 -1.55, 12.47 -0.12, 12.71 0.28" stroke="none" stroke-width="0" fill="#868e96"></path><path d="M14.5 0.72 C17.19 0.1, 19.54 3.56, 21.96 8.24 C24.38 12.93, 28.15 21.31, 29.03 28.82 C29.92 36.33, 28.88 46.73, 27.28 53.31 C25.67 59.89, 22.24 65.56, 19.39 68.28 C16.54 71, 12.88 71.76, 10.16 69.63 C7.44 67.5, 4.86 61.98, 3.07 55.51 C1.29 49.03, -0.86 38.52, -0.55 30.8 C-0.24 23.08, 2.17 14.28, 4.92 9.2 C7.68 4.11, 14.05 1.52, 15.98 0.27 C17.9 -0.98, 16.66 1.14, 16.47 1.68 M12.43 1.15 C15.15 0.07, 19.78 2.15, 22.27 6.27 C24.77 10.39, 26.66 18.46, 27.41 25.88 C28.15 33.29, 27.84 43.92, 26.76 50.76 C25.69 57.6, 23.59 63.43, 20.95 66.93 C18.3 70.44, 13.92 73.41, 10.92 71.8 C7.92 70.2, 4.87 63.74, 2.93 57.29 C1 50.84, -0.72 41.15, -0.69 33.09 C-0.66 25.03, 0.74 14.42, 3.12 8.93 C5.5 3.44, 12.11 1.72, 13.57 0.16 C15.04 -1.4, 12.11 -0.98, 11.93 -0.43" stroke="#000000" stroke-width="1" fill="none"></path></g><g stroke-linecap="round"><g transform="translate(548.3843125411581 39.99741151547886) rotate(0 119.70971847662861 0.049021910503512345)"><path d="M-0.49 -0.11 C39.52 -0.31, 199.72 -0.31, 239.91 -0.15 M1.45 -1.21 C41.33 -0.7, 199.27 1.29, 239.11 1.31" stroke="#000000" stroke-width="1" fill="none"></path></g></g><mask></mask><g stroke-linecap="round"><g transform="translate(548.0515598076581 110.13237828213352) rotate(0 121.6788223163826 0.22910246628981668)"><path d="M-0.11 0.27 C40.55 0.53, 203.97 1.28, 244.98 1.04 M-1.62 -0.63 C38.77 -0.65, 202.75 -0.56, 243.95 -0.53" stroke="#000000" stroke-width="1" fill="none"></path></g></g><mask></mask><g stroke-linecap="round" transform="translate(545.564227435478 41.29585964358381) rotate(0 9.096676127915657 32.820838892419516)"><path d="M4.55 0 L15.63 0.28 L17.91 2.56 L18.19 61.09 L17.91 63.08 L15.63 65.36 L2.56 65.36 L0.28 63.08 L0 4.55 L1.14 1.14 L4.55 0" stroke="none" stroke-width="0" fill="#ffffff"></path><path d="M4.55 0 M4.55 0 C7.82 0, 11.09 0, 13.65 0 M4.55 0 C7.71 0, 10.86 0, 13.65 0 M13.65 0 C16.68 0, 18.19 1.52, 18.19 4.55 M13.65 0 C16.68 0, 18.19 1.52, 18.19 4.55 M18.19 4.55 C18.19 25.18, 18.19 45.8, 18.19 61.09 M18.19 4.55 C18.19 17.11, 18.19 29.66, 18.19 61.09 M18.19 61.09 C18.19 64.13, 16.68 65.64, 13.65 65.64 M18.19 61.09 C18.19 64.13, 16.68 65.64, 13.65 65.64 M13.65 65.64 C10.61 65.64, 7.58 65.64, 4.55 65.64 M13.65 65.64 C11.46 65.64, 9.27 65.64, 4.55 65.64 M4.55 65.64 C1.52 65.64, 0 64.13, 0 61.09 M4.55 65.64 C1.52 65.64, 0 64.13, 0 61.09 M0 61.09 C0 40.23, 0 19.37, 0 4.55 M0 61.09 C0 41.44, 0 21.78, 0 4.55 M0 4.55 C0 1.52, 1.52 0, 4.55 0 M0 4.55 C0 1.52, 1.52 0, 4.55 0" stroke="transparent" stroke-width="1" fill="none"></path></g><g transform="translate(550.9060709255775 55.61256702524207) rotate(0 108.00733184814453 21.599999999999994)"><text x="108.00733184814453" y="0" font-family="Virgil, Segoe UI Emoji" font-size="18.636549541762406px" fill="#000000" text-anchor="middle" style="white-space: pre;" direction="ltr" dominant-baseline="text-before-edge">List</text><text x="108.00733184814453" y="21.599999999999998" font-family="Virgil, Segoe UI Emoji" font-size="18.636549541762406px" fill="#000000" text-anchor="middle" style="white-space: pre;" direction="ltr" dominant-baseline="text-before-edge">ListMutex:LIST:balance</text></g><g stroke-linecap="round"><g transform="translate(123.66159513124194 329.8394066994253) rotate(0 34.960064110581754 -31.037513918119373)"><path d="M0.42 -0.23 C12.4 -10.48, 59.18 -51.62, 70.74 -61.85 M-0.82 -1.4 C11.1 -11.44, 57.63 -50.68, 69.8 -60.5" stroke="#000000" stroke-width="1" fill="none"></path></g><g transform="translate(123.66159513124194 329.8394066994253) rotate(0 34.960064110581754 -31.037513918119373)"><path d="M54.24 -34.61 C57.21 -41.58, 60.76 -45.61, 69.8 -58.74 M54.25 -35.09 C61.26 -45.02, 65.11 -53.87, 69.27 -61.45" stroke="#000000" stroke-width="1" fill="none"></path></g><g transform="translate(123.66159513124194 329.8394066994253) rotate(0 34.960064110581754 -31.037513918119373)"><path d="M41.16 -50.41 C46.77 -54.19, 53.01 -54.96, 69.8 -58.74 M41.17 -50.9 C52.98 -54.83, 61.72 -57.79, 69.27 -61.45" stroke="#000000" stroke-width="1" fill="none"></path></g></g><mask></mask><g transform="translate(173.3577552372285 206.06494887064719) rotate(0 72.33993530273438 12)"><text x="0" y="0" font-family="Virgil, Segoe UI Emoji" font-size="20px" fill="#000000" text-anchor="start" style="white-space: pre;" direction="ltr" dominant-baseline="text-before-edge">New ListMutex</text></g><g stroke-linecap="round"><g transform="translate(449.2315985784221 331.0304609411983) rotate(0 14.389035370875092 -10.092869441524613)"><path d="M0.4 0.2 C0.31 -1.41, -0.82 -6.37, -0.43 -8.79 C-0.04 -11.21, 1.61 -12.75, 2.74 -14.32 C3.86 -15.89, 5 -17.02, 6.34 -18.21 C7.68 -19.39, 8.94 -21.05, 10.78 -21.43 C12.63 -21.82, 15.63 -20.79, 17.42 -20.52 C19.21 -20.26, 20.03 -20.95, 21.54 -19.84 C23.05 -18.72, 25.27 -16.05, 26.47 -13.83 C27.68 -11.62, 28.45 -8.77, 28.79 -6.53 C29.14 -4.29, 28.94 -1.32, 28.55 -0.38 C28.16 0.57, 27.05 -0.69, 26.44 -0.87 C25.84 -1.05, 25.42 -0.99, 24.93 -1.47 C24.45 -1.95, 23.76 -2.24, 23.55 -3.76 C23.34 -5.28, 24.23 -8.51, 23.68 -10.58 C23.13 -12.65, 21.98 -15.14, 20.26 -16.18 C18.54 -17.22, 15.49 -16.83, 13.35 -16.81 C11.22 -16.79, 8.86 -17.27, 7.44 -16.06 C6.02 -14.85, 5.4 -11.83, 4.85 -9.54 C4.3 -7.25, 4.21 -3.96, 4.14 -2.34 C4.07 -0.72, 4.77 -0.45, 4.42 0.16 C4.07 0.78, 2.62 1.26, 2.04 1.36 C1.46 1.46, 1.44 1.06, 0.94 0.76 M-0.85 -0.75 C-0.56 -2.24, 1.43 -4.78, 1.93 -7.36 C2.44 -9.94, 1.43 -14.11, 2.17 -16.25 C2.91 -18.38, 4.65 -19.33, 6.38 -20.17 C8.12 -21.01, 11.04 -21.1, 12.57 -21.28 C14.1 -21.46, 14.02 -21.81, 15.55 -21.26 C17.08 -20.7, 20.06 -19.15, 21.75 -17.93 C23.44 -16.72, 24.7 -15.75, 25.68 -13.98 C26.67 -12.2, 27.02 -9.55, 27.68 -7.29 C28.34 -5.03, 29.71 -1.59, 29.63 -0.4 C29.54 0.79, 28.1 -0.4, 27.17 -0.12 C26.24 0.15, 24.62 1.48, 24.06 1.26 C23.49 1.04, 23.9 0.58, 23.79 -1.44 C23.68 -3.46, 23.9 -8.24, 23.39 -10.83 C22.89 -13.43, 22.32 -16.27, 20.77 -17.04 C19.22 -17.8, 15.96 -15.65, 14.1 -15.43 C12.23 -15.21, 11.31 -16.74, 9.59 -15.71 C7.88 -14.68, 4.97 -11.44, 3.83 -9.24 C2.69 -7.04, 2.49 -3.78, 2.73 -2.5 C2.98 -1.21, 5.56 -2.05, 5.29 -1.5 C5.02 -0.96, 1.71 0.56, 1.12 0.78 C0.52 1, 2.15 0.19, 1.72 -0.2" stroke="#000000" stroke-width="1" fill="none"></path></g></g><mask></mask><g stroke-linecap="round" transform="translate(441.9741582088882 303.86888875374626) rotate(0 21.480321470171816 21.480321470171816)"><path d="M19.42 1.01 C23.59 0.21, 29.36 1, 33.27 3.58 C37.18 6.17, 41.71 12.12, 42.87 16.53 C44.02 20.94, 42.22 25.89, 40.21 30.02 C38.2 34.15, 34.74 39.13, 30.81 41.32 C26.89 43.51, 21.1 44.34, 16.68 43.19 C12.27 42.03, 6.97 38.39, 4.31 34.37 C1.65 30.36, 0.25 23.93, 0.74 19.1 C1.22 14.27, 3.76 8.72, 7.23 5.4 C10.71 2.08, 18.78 0.01, 21.57 -0.82 C24.37 -1.65, 23.97 0, 24.02 0.42 M15.59 1.19 C19.71 0.01, 26.87 0.13, 30.98 2.25 C35.08 4.36, 38.34 9.59, 40.23 13.89 C42.12 18.19, 43.24 23.59, 42.32 28.04 C41.4 32.5, 38.46 38.35, 34.72 40.61 C30.99 42.87, 24.82 42.34, 19.92 41.6 C15.02 40.86, 8.56 39.23, 5.3 36.17 C2.05 33.11, 0.65 27.69, 0.39 23.24 C0.12 18.8, 0.96 13.48, 3.74 9.5 C6.52 5.52, 15.11 0.94, 17.06 -0.64 C19.01 -2.23, 15.5 -0.57, 15.43 -0.02" stroke="#000000" stroke-width="1" fill="none"></path></g><g stroke-linecap="round"><g transform="translate(445.3131734527751 336.93788010167106) rotate(0 18.497629992825182 1.6890395592784557)" fill-rule="evenodd"><path d="M-0.06 -1.31 L1.23 -3.73 L5.11 -4.7 L34.15 -5.6 L34.91 -4.15 L33.87 3.54 L24.13 8.56 L17.84 10.5 L6.85 5.97 L-1.35 -0.55" stroke="none" stroke-width="0" fill="#fff" fill-rule="evenodd"></path><path d="M-0.67 -0.19 C-0.67 -0.78, -0.07 -2.46, 0.41 -3.29 C0.88 -4.13, 0.92 -4.58, 2.17 -5.22 C3.43 -5.85, 3.55 -6.93, 7.91 -7.11 C12.28 -7.29, 24.4 -6.2, 28.38 -6.29 C32.35 -6.38, 30.57 -7.82, 31.77 -7.65 C32.97 -7.48, 34.59 -6.17, 35.56 -5.27 C36.53 -4.37, 37.36 -3.18, 37.59 -2.24 C37.83 -1.3, 37.45 -0.43, 36.97 0.38 C36.49 1.19, 35.88 1.65, 34.69 2.61 C33.51 3.58, 31.73 5.25, 29.85 6.19 C27.98 7.13, 25.5 7.69, 23.44 8.28 C21.38 8.86, 19.93 9.91, 17.49 9.7 C15.05 9.49, 11.26 7.98, 8.81 7.01 C6.37 6.04, 4.37 5.18, 2.82 3.88 C1.27 2.59, -0.09 -0.09, -0.48 -0.76 M1.18 -1.34 C1.02 -2.28, -0.34 -4.06, -0.34 -5 C-0.33 -5.94, -0.14 -6.76, 1.21 -6.97 C2.56 -7.17, 3.41 -6.47, 7.76 -6.24 C12.11 -6.01, 23.12 -5.72, 27.29 -5.59 C31.45 -5.46, 31.23 -5.31, 32.75 -5.44 C34.28 -5.58, 35.71 -7, 36.44 -6.42 C37.17 -5.83, 37.26 -2.93, 37.13 -1.95 C36.99 -0.98, 36.43 -1.22, 35.61 -0.58 C34.79 0.07, 33.64 0.71, 32.21 1.92 C30.78 3.13, 28.75 5.16, 27.05 6.67 C25.35 8.18, 23.52 10.64, 22.03 11 C20.55 11.35, 20.43 9.56, 18.14 8.81 C15.85 8.07, 10.83 7.41, 8.29 6.52 C5.74 5.62, 4.19 4.52, 2.85 3.45 C1.52 2.38, 0.86 0.58, 0.3 0.1" stroke="#000000" stroke-width="1" fill="none"></path></g></g><mask></mask><g stroke-linecap="round"><g transform="translate(449.19535520787304 341.00175792884096) rotate(0 8.947276613688132 -3.7204463530976)" fill-rule="evenodd"><path d="M-0.96 -0.93 L0.07 -7.11 L-0.06 -7.46 L19.05 -8.03 L0.91 -5.69 L1.68 1.85 L1.94 1.56" stroke="none" stroke-width="0" fill="#fff" fill-rule="evenodd"></path><path d="M-0.19 0.38 C-0.15 -0.62, 0.11 -5.17, 0.46 -6.69 C0.8 -8.22, 1.48 -8.63, 1.89 -8.78 C2.3 -8.94, 0.1 -7.54, 2.92 -7.62 C5.74 -7.7, 16.39 -9.37, 18.8 -9.26 C21.21 -9.16, 17.79 -7.52, 17.39 -7 C16.99 -6.48, 18.37 -6.25, 16.42 -6.15 C14.46 -6.04, 8.02 -6.46, 5.65 -6.38 C3.28 -6.3, 3.03 -6.37, 2.19 -5.68 C1.35 -4.99, 0.89 -3.42, 0.59 -2.25 C0.28 -1.08, 0.63 0.83, 0.37 1.34 C0.11 1.85, -0.9 0.97, -0.98 0.8 M-1.76 -0.46 C-1.82 -1.24, -0.66 -4.12, -0.08 -5.36 C0.5 -6.59, 1.21 -7.12, 1.72 -7.86 C2.22 -8.6, 0.28 -9.56, 2.93 -9.8 C5.58 -10.04, 15.06 -9.64, 17.63 -9.3 C20.21 -8.97, 18.45 -8.2, 18.39 -7.81 C18.33 -7.41, 19.45 -7.17, 17.26 -6.93 C15.07 -6.7, 7.97 -6.45, 5.25 -6.41 C2.53 -6.36, 1.64 -7.36, 0.95 -6.66 C0.26 -5.95, 1.24 -3.67, 1.12 -2.17 C0.99 -0.67, 0.25 1.84, 0.19 2.34 C0.13 2.83, 0.77 1.24, 0.75 0.8" stroke="#000000" stroke-width="1" fill="none"></path></g></g><mask></mask><g stroke-linecap="round"><g transform="translate(713.6500893719456 326.640302032031) rotate(0 -22.634539872001028 -102.66232587695356)"><path d="M-0.52 -0.81 C-8.29 -35.21, -38.34 -172.55, -46.07 -206.71 M1.41 1.39 C-6.51 -32.8, -38.5 -170.4, -46.68 -205.25" stroke="#000000" stroke-width="1" fill="none"></path></g><g transform="translate(713.6500893719456 326.640302032031) rotate(0 -22.634539872001028 -102.66232587695356)"><path d="M-31.62 -179.08 C-36.17 -189.2, -40.32 -198.21, -48.59 -204.99 M-29.39 -180.91 C-37.25 -190.77, -42.77 -199.49, -46.94 -205.94" stroke="#000000" stroke-width="1" fill="none"></path></g><g transform="translate(713.6500893719456 326.640302032031) rotate(0 -22.634539872001028 -102.66232587695356)"><path d="M-51.61 -174.41 C-49.2 -186.07, -46.4 -196.71, -48.59 -204.99 M-49.38 -176.24 C-49.68 -187.7, -47.61 -198.19, -46.94 -205.94" stroke="#000000" stroke-width="1" fill="none"></path></g></g><mask></mask><g stroke-linecap="round"><g transform="translate(411.8051647098998 322.4727877225102) rotate(0 90.13622552301558 -100.26455546317393)"><path d="M0.38 0.96 C30.51 -32.48, 150.94 -165.91, 181.15 -199.55 M-0.88 0.41 C29.11 -32.88, 150.16 -168.06, 180.54 -201.48" stroke="#000000" stroke-width="1" fill="none"></path></g><g transform="translate(411.8051647098998 322.4727877225102) rotate(0 90.13622552301558 -100.26455546317393)"><path d="M170.88 -172.6 C173.39 -181.15, 174.87 -192.85, 179.7 -202.08 M169.58 -173.56 C173.18 -183.21, 177.67 -193.2, 179.81 -200.66" stroke="#000000" stroke-width="1" fill="none"></path></g><g transform="translate(411.8051647098998 322.4727877225102) rotate(0 90.13622552301558 -100.26455546317393)"><path d="M155.63 -186.34 C163.35 -190.36, 169.91 -197.48, 179.7 -202.08 M154.34 -187.3 C163.06 -192.33, 172.72 -197.66, 179.81 -200.66" stroke="#000000" stroke-width="1" fill="none"></path></g></g><mask></mask><g transform="translate(516.3377945725247 220.23252511738264) rotate(0 37.39997100830078 24)"><text x="0" y="0" font-family="Virgil, Segoe UI Emoji" font-size="20px" fill="#000000" text-anchor="start" style="white-space: pre;" direction="ltr" dominant-baseline="text-before-edge">Unlock()</text><text x="0" y="24" font-family="Virgil, Segoe UI Emoji" font-size="20px" fill="#000000" text-anchor="start" style="white-space: pre;" direction="ltr" dominant-baseline="text-before-edge">RPush()</text></g><g stroke-linecap="round" transform="translate(158.5734207932278 197.6890070509764) rotate(0 85.76437377929688 30.54351806640625)"><path d="M15.27 0 M15.27 0 C66.2 1.13, 117.21 0.41, 156.26 0 M15.27 0 C64.13 1.16, 114.28 -0.08, 156.26 0 M156.26 0 C164.94 1.81, 171.11 5.03, 171.53 15.27 M156.26 0 C165.95 0.89, 172.78 4.14, 171.53 15.27 M171.53 15.27 C170.88 26.88, 171.8 34.57, 171.53 45.82 M171.53 15.27 C171.07 24.38, 171.56 32.99, 171.53 45.82 M171.53 45.82 C170.18 56.7, 165.63 61.66, 156.26 61.09 M171.53 45.82 C173.82 54.84, 166.68 60.69, 156.26 61.09 M156.26 61.09 C114.97 63.69, 76.79 61.17, 15.27 61.09 M156.26 61.09 C122.3 60.14, 90.43 60.36, 15.27 61.09 M15.27 61.09 C5.17 62.73, 0.59 54.95, 0 45.82 M15.27 61.09 C4.29 63.21, 0.99 57.01, 0 45.82 M0 45.82 C0.71 37.41, -0.23 28.71, 0 15.27 M0 45.82 C-0.51 39.4, -0.99 32.74, 0 15.27 M0 15.27 C-0.23 5.88, 5.94 1.7, 15.27 0 M0 15.27 C1.15 4.07, 4.25 -1.72, 15.27 0" stroke="#000000" stroke-width="1" fill="none"></path></g><g transform="translate(171.33779457252467 231.23252511738264) rotate(0 50 12)"><text x="50" y="0" font-family="Virgil, Segoe UI Emoji" font-size="20px" fill="#000000" text-anchor="middle" style="white-space: pre;" direction="ltr" dominant-baseline="text-before-edge"></text></g><g transform="translate(275.9978592697903 230.23252511738264) rotate(0 19.259979248046875 12)"><text x="0" y="0" font-family="Virgil, Segoe UI Emoji" font-size="20px" fill="#000000" text-anchor="start" style="white-space: pre;" direction="ltr" dominant-baseline="text-before-edge">List</text></g><g stroke-linecap="round"><g transform="translate(264.85698440953615 191.23586344344932) rotate(0 34.470286932247745 -41.03616405771112)"><path d="M-1.16 0.6 C10.51 -12.92, 58.3 -67.28, 70.1 -80.85 M0.43 -0.13 C11.97 -14.03, 57.93 -68.9, 69.32 -82.67" stroke="#000000" stroke-width="1" fill="none"></path></g><g transform="translate(264.85698440953615 191.23586344344932) rotate(0 34.470286932247745 -41.03616405771112)"><path d="M60.16 -53.9 C63.16 -63.27, 66.41 -72.93, 71.09 -84.58 M59.67 -53.84 C62.94 -65.84, 65.64 -74.35, 68.94 -83.02" stroke="#000000" stroke-width="1" fill="none"></path></g><g transform="translate(264.85698440953615 191.23586344344932) rotate(0 34.470286932247745 -41.03616405771112)"><path d="M44.39 -67.03 C52.26 -72.22, 60.34 -77.86, 71.09 -84.58 M43.91 -66.97 C53.01 -74.19, 61.51 -77.87, 68.94 -83.02" stroke="#000000" stroke-width="1" fill="none"></path></g></g><mask></mask><g stroke-linecap="round"><g transform="translate(334.32168839001145 194.286728913768) rotate(0 102.15247679247449 -37.40307006033308)"><path d="M-0.41 0.61 C33.23 -11.95, 168.57 -62.92, 202.52 -75.42 M1.58 -0.11 C35.52 -12.54, 171.25 -62.18, 204.71 -74.32" stroke="#000000" stroke-width="1" fill="none"></path></g><g transform="translate(334.32168839001145 194.286728913768) rotate(0 102.15247679247449 -37.40307006033308)"><path d="M182.76 -56.68 C188.62 -62.28, 198.61 -69.54, 205.78 -73.47 M182.17 -54.65 C189.37 -61.7, 198.53 -68.57, 205.68 -74.52" stroke="#000000" stroke-width="1" fill="none"></path></g><g transform="translate(334.32168839001145 194.286728913768) rotate(0 102.15247679247449 -37.40307006033308)"><path d="M175.73 -75.96 C184.1 -74.61, 196.62 -74.95, 205.78 -73.47 M175.15 -73.93 C185.06 -73.92, 196.8 -73.73, 205.68 -74.52" stroke="#000000" stroke-width="1" fill="none"></path></g></g><mask></mask><g transform="translate(715.4678299729153 211.23252511738264) rotate(0 37.869964599609375 24)"><text x="0" y="0" font-family="Virgil, Segoe UI Emoji" font-size="20px" fill="#000000" text-anchor="start" style="white-space: pre;" direction="ltr" dominant-baseline="text-before-edge">Lock()</text><text x="0" y="24" font-family="Virgil, Segoe UI Emoji" font-size="20px" fill="#000000" text-anchor="start" style="white-space: pre;" direction="ltr" dominant-baseline="text-before-edge">BLPop()</text></g></svg>